<?xml version="1.0" encoding="UTF-8" standalone="no"?>
<svg
   xmlns:dc="http://purl.org/dc/elements/1.1/"
   xmlns:cc="http://creativecommons.org/ns#"
   xmlns:rdf="http://www.w3.org/1999/02/22-rdf-syntax-ns#"
   xmlns:svg="http://www.w3.org/2000/svg"
   xmlns="http://www.w3.org/2000/svg"
   xmlns:xlink="http://www.w3.org/1999/xlink"
   xmlns:sodipodi="http://sodipodi.sourceforge.net/DTD/sodipodi-0.dtd"
   xmlns:inkscape="http://www.inkscape.org/namespaces/inkscape"
   width="1080"
   height="1920"
   viewBox="0 0 285.74999 508.00002"
   version="1.1"
   id="svg1205"
   inkscape:version="1.0 (6e3e5246a0, 2020-05-07)"
   sodipodi:docname="awkward-success.svg">
  <defs
     id="defs1199">
    <rect
       x="431.4589"
       y="233.82739"
       width="3.7891744"
       height="9.8391466"
       id="rect860" />
    <linearGradient
       inkscape:collect="always"
       xlink:href="#linearGradient1122"
       id="linearGradient2670"
       gradientUnits="userSpaceOnUse"
       x1="254"
       y1="11.249983"
       x2="254"
       y2="296.99997" />
    <linearGradient
       inkscape:collect="always"
       id="linearGradient1122">
      <stop
         style="stop-color:#40c2ff;stop-opacity:1"
         offset="0"
         id="stop1118" />
      <stop
         style="stop-color:#b9eeff;stop-opacity:1"
         offset="1"
         id="stop1120" />
    </linearGradient>
    <clipPath
       clipPathUnits="userSpaceOnUse"
       id="clipPath1141-6-7">
      <rect
         style="opacity:1;fill:#242664;fill-opacity:1;stroke:none;stroke-width:2;stroke-miterlimit:4;stroke-dasharray:none;stroke-opacity:1"
         id="rect1143-7"
         width="508"
         height="285.75"
         x="0"
         y="11.249983" />
    </clipPath>
    <radialGradient
       inkscape:collect="always"
       xlink:href="#linearGradient5468"
       id="radialGradient5470"
       cx="454.35822"
       cy="58.061031"
       fx="454.35822"
       fy="58.061031"
       r="28.33057"
       gradientUnits="userSpaceOnUse"
       gradientTransform="matrix(1.3490562,0,0,1.3490565,-155.91853,-17.523235)" />
    <linearGradient
       inkscape:collect="always"
       id="linearGradient5468">
      <stop
         style="stop-color:#ffffff;stop-opacity:1;"
         offset="0"
         id="stop5464" />
      <stop
         id="stop5472"
         offset="0.69047737"
         style="stop-color:#ffffff;stop-opacity:1" />
      <stop
         style="stop-color:#ffffff;stop-opacity:0"
         offset="1"
         id="stop5466" />
    </linearGradient>
    <clipPath
       clipPathUnits="userSpaceOnUse"
       id="clipPath1117">
      <rect
         style="opacity:1;fill:#242664;fill-opacity:1;stroke:none;stroke-width:2.44785;stroke-miterlimit:4;stroke-dasharray:none;stroke-opacity:1"
         id="rect1119"
         width="621.75482"
         height="349.73709"
         x="-97.145508"
         y="5.226202" />
    </clipPath>
  </defs>
  <sodipodi:namedview
     id="base"
     pagecolor="#7f7f7f"
     bordercolor="#666666"
     borderopacity="1.0"
     inkscape:pageopacity="0"
     inkscape:pageshadow="2"
     inkscape:zoom="0.7"
     inkscape:cx="246.3578"
     inkscape:cy="1425.4298"
     inkscape:document-units="mm"
     inkscape:current-layer="layer2"
     showgrid="false"
     units="px"
     inkscape:window-width="1848"
     inkscape:window-height="1016"
     inkscape:window-x="72"
     inkscape:window-y="27"
     inkscape:window-maximized="1"
     inkscape:document-rotation="0"
     inkscape:snap-page="true"
     inkscape:snap-text-baseline="true"
     inkscape:snap-center="true"
     inkscape:snap-object-midpoints="true"
     inkscape:snap-smooth-nodes="true"
     inkscape:snap-midpoints="true"
     inkscape:snap-intersection-paths="true"
     inkscape:object-paths="true"
     inkscape:snap-bbox="false"
     inkscape:snap-global="true" />
  <metadata
     id="metadata1202">
    <rdf:RDF>
      <cc:Work
         rdf:about="">
        <dc:format>image/svg+xml</dc:format>
        <dc:type
           rdf:resource="http://purl.org/dc/dcmitype/StillImage" />
        <dc:title />
      </cc:Work>
    </rdf:RDF>
  </metadata>
  <g
     inkscape:label="bkgd"
     inkscape:groupmode="layer"
     id="layer1"
     transform="translate(0,-11.249983)"
     style="display:inline">
    <path
       style="fill:#fab485;fill-opacity:1;stroke:none;stroke-width:0.41554px;stroke-linecap:butt;stroke-linejoin:miter;stroke-opacity:1"
       d="M 0,11.249984 H 285.75 V 519.25001 H 0 Z"
       id="path884"
       inkscape:connector-curvature="0"
       sodipodi:nodetypes="ccccc" />
    <text
       xml:space="preserve"
       id="text858"
       style="font-style:normal;font-variant:normal;font-weight:normal;font-stretch:normal;font-size:4.23333px;line-height:1.25;font-family:Roboto;-inkscape-font-specification:'Roboto, Normal';font-variant-ligatures:normal;font-variant-caps:normal;font-variant-numeric:normal;font-feature-settings:normal;text-align:start;letter-spacing:0px;word-spacing:0px;writing-mode:lr-tb;white-space:pre;shape-inside:url(#rect860);fill:#000000;fill-opacity:1;stroke:none;" />
    <text
       xml:space="preserve"
       style="font-style:normal;font-variant:normal;font-weight:normal;font-stretch:normal;font-size:4.23333px;line-height:1.25;font-family:Roboto;-inkscape-font-specification:'Roboto, Normal';font-variant-ligatures:normal;font-variant-caps:normal;font-variant-numeric:normal;font-feature-settings:normal;text-align:start;letter-spacing:0px;word-spacing:0px;writing-mode:lr-tb;text-anchor:start;fill:#000000;fill-opacity:1;stroke:none;stroke-width:0.264583"
       x="169.04814"
       y="296.76031"
       id="text911"><tspan
         sodipodi:role="line"
         id="tspan909"
         x="169.04814"
         y="296.76031"
         style="stroke-width:0.264583" /></text>
    <rect
       transform="matrix(0.5625,0,0,1.5039482,0,-5.6694081)"
       clip-path="url(#clipPath1141-6-7)"
       style="fill:url(#linearGradient2670);fill-opacity:1;stroke:none;stroke-width:1.78324;stroke-miterlimit:4;stroke-dasharray:none;stroke-opacity:1"
       id="rect5450"
       width="508"
       height="285.75"
       x="0"
       y="11.249983" />
    <path
       inkscape:connector-curvature="0"
       id="path1174"
       d="M 142.87491,441.00332 29.38135,519.25 h 226.98708 z"
       style="fill:#333333;stroke:none;stroke-width:0.419367px;stroke-linecap:butt;stroke-linejoin:miter;stroke-opacity:1" />
    <path
       inkscape:connector-curvature="0"
       id="path1196"
       d="M 142.87491,441.00332 242.5447,519.25 h -8.79437 z"
       style="fill:#ffffff;fill-opacity:1;stroke:none;stroke-width:0.419367px;stroke-linecap:butt;stroke-linejoin:miter;stroke-opacity:1" />
    <path
       style="fill:#ffffff;fill-opacity:1;stroke:none;stroke-width:0.419367px;stroke-linecap:butt;stroke-linejoin:miter;stroke-opacity:1"
       d="M 142.87491,441.00332 43.2051,519.25 h 8.79439 z"
       id="path1206"
       inkscape:connector-curvature="0" />
    <path
       id="path1220"
       d="m 142.87502,441.00318 -0.17838,3.66831 h 0.35676 z m -0.25079,5.1566 -0.11774,2.41905 h 0.73708 l -0.11776,-2.41905 z m -0.21371,4.39068 -0.2084,4.27822 h 1.34581 l -0.20841,-4.27822 z m -0.38385,7.88708 -0.46155,9.48134 h 2.6198 l -0.46155,-9.48134 z m -0.72294,14.84871 -0.7465,15.3338 h 4.63558 l -0.7465,-15.3338 z m -1.11563,22.91828 -1.12211,23.04547 h 7.61746 l -1.12151,-23.04547 z"
       style="fill:#ffcc00;stroke:none;stroke-width:0.0768247px;stroke-linecap:butt;stroke-linejoin:miter;stroke-opacity:1" />
  </g>
  <g
     inkscape:groupmode="layer"
     id="layer2"
     inkscape:label="quote"
     style="display:inline">
    <rect
       transform="translate(0,-11.249983)"
       y="140.68428"
       x="19.759142"
       height="249.13139"
       width="246.2317"
       id="rect1304"
       style="display:inline;opacity:1;vector-effect:none;fill:#000000;fill-opacity:0.33;stroke:none;stroke-width:3;stroke-linecap:butt;stroke-linejoin:miter;stroke-miterlimit:4;stroke-dasharray:none;stroke-dashoffset:0;stroke-opacity:1" />
    <rect
       style="fill:#000000;fill-opacity:0.5;stroke:none;stroke-width:0.265;stroke-miterlimit:4;stroke-dasharray:none"
       id="rect1120"
       width="212.13972"
       height="212.04767"
       x="36.805138"
       y="147.97617" />
    <text
       xml:space="preserve"
       style="font-style:normal;font-variant:normal;font-weight:normal;font-stretch:normal;font-size:18.8096px;line-height:1.25;font-family:'Ubuntu Condensed';-inkscape-font-specification:'Ubuntu Condensed, Normal';font-variant-ligatures:normal;font-variant-caps:normal;font-variant-numeric:normal;font-variant-east-asian:normal;font-feature-settings:&quot;case&quot;;text-align:start;letter-spacing:0px;word-spacing:0px;writing-mode:lr-tb;text-anchor:start;fill:#000000;fill-opacity:1;stroke:none;stroke-width:0.264582"
       x="51.856815"
       y="192.65437"
       id="text852"><tspan
         sodipodi:role="line"
         id="tspan850"
         x="51.856815"
         y="192.65437"
         style="font-style:normal;font-variant:normal;font-weight:normal;font-stretch:normal;font-size:18.8096px;font-family:'Ubuntu Condensed';-inkscape-font-specification:'Ubuntu Condensed, Normal';font-variant-ligatures:normal;font-variant-caps:normal;font-variant-numeric:normal;font-variant-east-asian:normal;font-feature-settings:&quot;case&quot;;fill:#ffffff;stroke-width:0.264582">Success is</tspan></text>
    <text
       xml:space="preserve"
       style="font-style:normal;font-variant:normal;font-weight:normal;font-stretch:normal;font-size:19.3768px;line-height:1.25;font-family:'Ubuntu Condensed';-inkscape-font-specification:'Ubuntu Condensed, Normal';font-variant-ligatures:normal;font-variant-caps:normal;font-variant-numeric:normal;font-variant-east-asian:normal;font-feature-settings:&quot;case&quot;;text-align:start;letter-spacing:0px;word-spacing:0px;writing-mode:lr-tb;text-anchor:start;fill:#000000;fill-opacity:1;stroke:none;stroke-width:0.264583"
       x="133.31081"
       y="342.12308"
       id="text856"><tspan
         sodipodi:role="line"
         id="tspan854"
         x="133.31081"
         y="342.12308"
         style="font-style:normal;font-variant:normal;font-weight:normal;font-stretch:normal;font-size:19.3768px;font-family:'Ubuntu Condensed';-inkscape-font-specification:'Ubuntu Condensed, Normal';font-variant-ligatures:normal;font-variant-caps:normal;font-variant-numeric:normal;font-variant-east-asian:normal;font-feature-settings:&quot;case&quot;;fill:#ffffff;stroke-width:0.264583">- Tim Ferriss</tspan></text>
    <text
       xml:space="preserve"
       style="font-style:normal;font-variant:normal;font-weight:normal;font-stretch:normal;font-size:14.5847px;line-height:1.25;font-family:'Ubuntu Condensed';-inkscape-font-specification:'Ubuntu Condensed, Normal';font-variant-ligatures:normal;font-variant-caps:normal;font-variant-numeric:normal;font-variant-east-asian:normal;font-feature-settings:&quot;case&quot;;text-align:start;letter-spacing:0px;word-spacing:0px;writing-mode:lr-tb;text-anchor:start;fill:#000000;fill-opacity:1;stroke:none;stroke-width:0.264584"
       x="60.075569"
       y="315.37033"
       id="text870"><tspan
         sodipodi:role="line"
         id="tspan868"
         x="60.075569"
         y="315.37033"
         style="font-style:normal;font-variant:normal;font-weight:normal;font-stretch:normal;font-size:14.5847px;font-family:'Ubuntu Condensed';-inkscape-font-specification:'Ubuntu Condensed, Normal';font-variant-ligatures:normal;font-variant-caps:normal;font-variant-numeric:normal;font-variant-east-asian:normal;font-feature-settings:&quot;case&quot;;fill:#ffffff;stroke-width:0.264584">you're willing to have.</tspan></text>
    <text
       xml:space="preserve"
       style="font-style:normal;font-variant:normal;font-weight:normal;font-stretch:normal;font-size:16.2254px;line-height:1.25;font-family:'Ubuntu Condensed';-inkscape-font-specification:'Ubuntu Condensed, Normal';font-variant-ligatures:normal;font-variant-caps:normal;font-variant-numeric:normal;font-variant-east-asian:normal;font-feature-settings:&quot;case&quot;;text-align:start;letter-spacing:0px;word-spacing:0px;writing-mode:lr-tb;text-anchor:start;fill:#000000;fill-opacity:1;stroke:none;stroke-width:0.264584"
       x="80.216484"
       y="233.31128"
       id="text874"><tspan
         sodipodi:role="line"
         id="tspan872"
         x="80.216484"
         y="233.31128"
         style="font-style:normal;font-variant:normal;font-weight:normal;font-stretch:normal;font-size:16.2254px;font-family:'Ubuntu Condensed';-inkscape-font-specification:'Ubuntu Condensed, Normal';font-variant-ligatures:normal;font-variant-caps:normal;font-variant-numeric:normal;font-variant-east-asian:normal;font-feature-settings:&quot;case&quot;;fill:#ffffff;stroke-width:0.264584">to how many</tspan></text>
    <text
       xml:space="preserve"
       style="font-style:normal;font-variant:normal;font-weight:normal;font-stretch:normal;font-size:17.1314px;line-height:1.25;font-family:'Ubuntu Condensed';-inkscape-font-specification:'Ubuntu Condensed, Normal';font-variant-ligatures:normal;font-variant-caps:normal;font-variant-numeric:normal;font-variant-east-asian:normal;font-feature-settings:&quot;case&quot;;text-align:start;letter-spacing:0px;word-spacing:0px;writing-mode:lr-tb;text-anchor:start;fill:#000000;fill-opacity:1;stroke:none;stroke-width:0.264583"
       x="186.25203"
       y="178.94365"
       id="text878"><tspan
         sodipodi:role="line"
         x="186.25203"
         y="178.94365"
         style="font-style:normal;font-variant:normal;font-weight:normal;font-stretch:normal;font-size:17.1314px;font-family:'Ubuntu Condensed';-inkscape-font-specification:'Ubuntu Condensed, Normal';font-variant-ligatures:normal;font-variant-caps:normal;font-variant-numeric:normal;font-variant-east-asian:normal;font-feature-settings:&quot;case&quot;;text-align:center;text-anchor:middle;fill:#ffffff;stroke-width:0.264583"
         id="tspan880">directly</tspan></text>
    <text
       id="text878-8"
       y="209.84106"
       x="186.43019"
       style="font-style:normal;font-variant:normal;font-weight:normal;font-stretch:normal;font-size:17.1314px;line-height:1.25;font-family:'Ubuntu Condensed';-inkscape-font-specification:'Ubuntu Condensed, Normal';font-variant-ligatures:normal;font-variant-caps:normal;font-variant-numeric:normal;font-variant-east-asian:normal;font-feature-settings:&quot;case&quot;;text-align:start;letter-spacing:0px;word-spacing:0px;writing-mode:lr-tb;text-anchor:start;fill:#000000;fill-opacity:1;stroke:none;stroke-width:0.264583"
       xml:space="preserve"><tspan
         id="tspan880-6"
         style="font-style:normal;font-variant:normal;font-weight:normal;font-stretch:normal;font-size:17.1314px;font-family:'Ubuntu Condensed';-inkscape-font-specification:'Ubuntu Condensed, Normal';font-variant-ligatures:normal;font-variant-caps:normal;font-variant-numeric:normal;font-variant-east-asian:normal;font-feature-settings:&quot;case&quot;;text-align:center;text-anchor:middle;fill:#ffffff;stroke-width:0.264583"
         y="209.84106"
         x="186.43019"
         sodipodi:role="line">proportional</tspan></text>
    <text
       id="text866-1"
       y="291.36511"
       x="119.49603"
       style="font-style:normal;font-variant:normal;font-weight:normal;font-stretch:normal;font-size:16.2043px;line-height:1.25;font-family:'Ubuntu Condensed';-inkscape-font-specification:'Ubuntu Condensed, Normal';font-variant-ligatures:normal;font-variant-caps:normal;font-variant-numeric:normal;font-variant-east-asian:normal;font-feature-settings:&quot;case&quot;;text-align:start;letter-spacing:0px;word-spacing:0px;writing-mode:lr-tb;text-anchor:start;fill:#ffffff;fill-opacity:1;stroke:none;stroke-width:0.264583"
       xml:space="preserve"><tspan
         style="font-style:normal;font-variant:normal;font-weight:normal;font-stretch:normal;font-size:16.2043px;font-family:'Ubuntu Condensed';-inkscape-font-specification:'Ubuntu Condensed, Normal';font-variant-ligatures:normal;font-variant-caps:normal;font-variant-numeric:normal;font-variant-east-asian:normal;font-feature-settings:&quot;case&quot;;fill:#ffffff;stroke-width:0.264583"
         y="291.36511"
         x="119.49603"
         id="tspan864-6"
         sodipodi:role="line">conversations</tspan></text>
    <path
       id="rect1015"
       style="display:inline;fill:#ffffff;stroke:none;stroke-width:0.264998;stroke-miterlimit:4;stroke-dasharray:none"
       d="m 31.720807,144.42164 v 61.84098 h 9.944569 v -51.89641 h 51.896852 v -9.94457 z" />
    <path
       id="rect1015-5"
       style="display:inline;fill:#ffffff;stroke:none;stroke-width:0.264998;stroke-miterlimit:4;stroke-dasharray:none"
       d="m 243.86054,304.57721 v 51.89643 h -51.89641 v 9.945 h 61.84097 v -61.84143 z" />
    <path
       style="fill:none;stroke:#ffffff;stroke-width:1.665;stroke-linecap:butt;stroke-linejoin:miter;stroke-miterlimit:4;stroke-dasharray:none;stroke-opacity:1"
       d="M 134.70939,188.44776 H 239.16208"
       id="path1122" />
    <g
       aria-label="awkward"
       id="text1126"
       style="font-style:normal;font-variant:normal;font-weight:normal;font-stretch:normal;font-size:24.3412px;line-height:1.25;font-family:'Ubuntu Condensed';-inkscape-font-specification:'Ubuntu Condensed, Normal';font-variant-ligatures:normal;font-variant-caps:normal;font-variant-numeric:normal;font-variant-east-asian:normal;font-feature-settings:&quot;case&quot;;text-align:start;letter-spacing:0px;word-spacing:0px;writing-mode:lr-tb;text-anchor:start;fill:#ffffff;fill-opacity:1;stroke:none;stroke-width:0.25364"
       transform="matrix(1.0431426,0,0,1.0431426,-5.2458761,-12.751896)">
      <path
         d="m 103.22478,250.17592 q 0.58419,1.82559 1.14404,3.69986 0.58419,1.84993 1.11969,3.8946 0.55985,2.04466 1.09536,4.33273 0.55984,2.28807 1.11969,4.94126 h -2.19071 q -0.19473,-1.09535 -0.4138,-2.16636 -0.19473,-1.07102 -0.4138,-2.14203 h -5.306379 q -0.243412,1.07101 -0.438141,2.14203 -0.19473,1.07101 -0.38946,2.16636 h -2.117684 q 0.535506,-2.65319 1.095354,-4.94126 0.559848,-2.28807 1.095354,-4.33273 0.559848,-2.04467 1.119695,-3.8946 0.584191,-1.87427 1.168381,-3.69986 z m -1.19272,2.4828 q -0.60853,2.02032 -1.16838,4.06498 -0.55984,2.04466 -1.071008,4.18669 h 4.454438 q -0.48682,-2.14203 -1.04667,-4.18669 -0.55985,-2.04466 -1.16838,-4.06498 z"
         style="font-style:normal;font-variant:normal;font-weight:normal;font-stretch:normal;font-size:24.3412px;font-family:'Ubuntu Condensed';-inkscape-font-specification:'Ubuntu Condensed, Normal';font-variant-ligatures:normal;font-variant-caps:normal;font-variant-numeric:normal;font-variant-east-asian:normal;font-feature-settings:&quot;case&quot;;fill:#ffffff;stroke-width:0.25364"
         id="path1128" />
      <path
         d="m 116.84522,256.1722 q 0.31644,1.46047 0.68155,3.09133 0.36512,1.63086 0.75458,3.23738 0.4138,1.60652 0.8276,3.11567 0.4138,1.50916 0.77892,2.75056 0.29209,-1.36311 0.55985,-3.01831 0.26775,-1.67954 0.51116,-3.50513 0.26776,-1.82559 0.48683,-3.77289 0.21907,-1.94729 0.36511,-3.89459 h 2.14203 q -0.55985,4.89258 -1.26574,9.00624 -0.68156,4.11367 -1.60652,7.86221 h -2.21505 q -0.36512,-1.19272 -0.80326,-2.65319 -0.4138,-1.46047 -0.8276,-3.01831 -0.4138,-1.58218 -0.80326,-3.18869 -0.38946,-1.60652 -0.7059,-3.11568 -0.31643,1.50916 -0.70589,3.11568 -0.38946,1.60651 -0.80326,3.18869 -0.4138,1.55784 -0.85194,3.01831 -0.4138,1.46047 -0.77892,2.65319 h -2.21505 q -0.92497,-3.74854 -1.63086,-7.86221 -0.68155,-4.11366 -1.2414,-9.00624 h 2.21505 q 0.14605,1.9473 0.36512,3.89459 0.21907,1.92296 0.46248,3.77289 0.26775,1.82559 0.53551,3.50513 0.26775,1.6552 0.55984,3.01831 0.36512,-1.2414 0.77892,-2.75056 0.4138,-1.50915 0.80326,-3.11567 0.4138,-1.60652 0.77892,-3.23738 0.36512,-1.63086 0.68155,-3.09133 z"
         style="font-style:normal;font-variant:normal;font-weight:normal;font-stretch:normal;font-size:24.3412px;font-family:'Ubuntu Condensed';-inkscape-font-specification:'Ubuntu Condensed, Normal';font-variant-ligatures:normal;font-variant-caps:normal;font-variant-numeric:normal;font-variant-east-asian:normal;font-feature-settings:&quot;case&quot;;fill:#ffffff;stroke-width:0.25364"
         id="path1130" />
      <path
         d="m 134.88059,249.99897 q -0.53551,0.8276 -1.21706,1.82559 -0.65721,0.99799 -1.36311,2.069 -0.70589,1.04667 -1.43613,2.06901 -0.70589,1.02233 -1.3631,1.89861 0.73023,0.73023 1.58217,1.84993 0.85195,1.09535 1.67955,2.33675 0.8276,1.21706 1.55783,2.48281 0.73024,1.26574 1.16838,2.33675 h -2.45846 q -0.51117,-1.11969 -1.19272,-2.28807 -0.65721,-1.16838 -1.41179,-2.23939 -0.73023,-1.09535 -1.50915,-2.02032 -0.75458,-0.92497 -1.48482,-1.55784 v 8.10562 h -2.1907 v -16.86845 h 2.1907 v 7.44841 q 0.63288,-0.80326 1.33877,-1.82559 0.70589,-1.02233 1.38745,-2.04466 0.70589,-1.02233 1.31442,-1.9473 0.60853,-0.94931 1.02233,-1.63086 z"
         style="font-style:normal;font-variant:normal;font-weight:normal;font-stretch:normal;font-size:24.3412px;font-family:'Ubuntu Condensed';-inkscape-font-specification:'Ubuntu Condensed, Normal';font-variant-ligatures:normal;font-variant-caps:normal;font-variant-numeric:normal;font-variant-east-asian:normal;font-feature-settings:&quot;case&quot;;fill:#ffffff;stroke-width:0.25364"
         id="path1132" />
      <path
         d="m 145.13679,250.35388 q 0.31644,1.46047 0.68155,3.09133 0.36512,1.63086 0.75458,3.23738 0.4138,1.60652 0.8276,3.11567 0.4138,1.50916 0.77892,2.75056 0.29209,-1.36311 0.55985,-3.01831 0.26775,-1.67954 0.51116,-3.50513 0.26776,-1.82559 0.48683,-3.77289 0.21907,-1.94729 0.36511,-3.89459 h 2.14203 q -0.55985,4.89258 -1.26574,9.00624 -0.68156,4.11367 -1.60652,7.86221 h -2.21505 q -0.36512,-1.19272 -0.80326,-2.65319 -0.4138,-1.46047 -0.8276,-3.01831 -0.4138,-1.58218 -0.80326,-3.18869 -0.38946,-1.60652 -0.7059,-3.11568 -0.31643,1.50916 -0.70589,3.11568 -0.38946,1.60651 -0.80326,3.18869 -0.4138,1.55784 -0.85194,3.01831 -0.4138,1.46047 -0.77892,2.65319 h -2.21505 q -0.92496,-3.74854 -1.63086,-7.86221 -0.68155,-4.11366 -1.2414,-9.00624 h 2.21505 q 0.14605,1.9473 0.36512,3.89459 0.21907,1.92296 0.46248,3.77289 0.26775,1.82559 0.53551,3.50513 0.26775,1.6552 0.55984,3.01831 0.36512,-1.2414 0.77892,-2.75056 0.4138,-1.50915 0.80326,-3.11567 0.4138,-1.60652 0.77892,-3.23738 0.36512,-1.63086 0.68155,-3.09133 z"
         style="font-style:normal;font-variant:normal;font-weight:normal;font-stretch:normal;font-size:24.3412px;font-family:'Ubuntu Condensed';-inkscape-font-specification:'Ubuntu Condensed, Normal';font-variant-ligatures:normal;font-variant-caps:normal;font-variant-numeric:normal;font-variant-east-asian:normal;font-feature-settings:&quot;case&quot;;fill:#ffffff;stroke-width:0.25364"
         id="path1134" />
      <path
         d="m 156.94024,253.91485 q 0.58419,1.82559 1.14404,3.69986 0.58419,1.84993 1.11969,3.8946 0.55985,2.04466 1.09536,4.33273 0.55984,2.28807 1.11969,4.94126 h -2.19071 q -0.19473,-1.09535 -0.4138,-2.16636 -0.19473,-1.07102 -0.4138,-2.14203 h -5.30638 q -0.24341,1.07101 -0.43814,2.14203 -0.19473,1.07101 -0.38946,2.16636 h -2.11768 q 0.5355,-2.65319 1.09535,-4.94126 0.55985,-2.28807 1.09535,-4.33273 0.55985,-2.04467 1.1197,-3.8946 0.58419,-1.87427 1.16838,-3.69986 z m -1.19272,2.4828 q -0.60853,2.02032 -1.16838,4.06498 -0.55984,2.04466 -1.07101,4.18669 h 4.45444 q -0.48682,-2.14203 -1.04667,-4.18669 -0.55985,-2.04466 -1.16838,-4.06498 z"
         style="font-style:normal;font-variant:normal;font-weight:normal;font-stretch:normal;font-size:24.3412px;font-family:'Ubuntu Condensed';-inkscape-font-specification:'Ubuntu Condensed, Normal';font-variant-ligatures:normal;font-variant-caps:normal;font-variant-numeric:normal;font-variant-east-asian:normal;font-feature-settings:&quot;case&quot;;fill:#ffffff;stroke-width:0.25364"
         id="path1136" />
      <path
         d="m 161.96206,250.67378 q 1.70388,-0.4138 3.28606,-0.4138 1.26574,0 2.28807,0.2921 1.02233,0.29209 1.75257,0.92496 0.73024,0.63287 1.1197,1.63086 0.4138,0.99799 0.4138,2.40978 0,1.75257 -0.68156,2.84792 -0.65721,1.07101 -1.80125,1.63086 0.2921,0.48683 0.73024,1.33877 0.46248,0.8276 0.92497,1.84993 0.48682,0.99799 0.92496,2.069 0.46248,1.07101 0.77892,2.04466 h -2.19071 q -0.26775,-0.73023 -0.68155,-1.6552 -0.38946,-0.92496 -0.8276,-1.82559 -0.43814,-0.92496 -0.87629,-1.75257 -0.43814,-0.85194 -0.77891,-1.43613 -0.38946,0.0487 -0.80326,0.073 -0.4138,0.0243 -0.82761,0.0243 h -0.60853 v 6.57212 h -2.14202 z m 2.14202,8.25167 h 0.92497 q 1.67954,0 2.58017,-0.75458 0.90062,-0.77892 0.90062,-2.65319 0,-0.9493 -0.24341,-1.58218 -0.21907,-0.65721 -0.65721,-1.02233 -0.4138,-0.38946 -1.02233,-0.55984 -0.58419,-0.17039 -1.31443,-0.17039 -0.63287,0 -1.16838,0.073 z"
         style="font-style:normal;font-variant:normal;font-weight:normal;font-stretch:normal;font-size:24.3412px;font-family:'Ubuntu Condensed';-inkscape-font-specification:'Ubuntu Condensed, Normal';font-variant-ligatures:normal;font-variant-caps:normal;font-variant-numeric:normal;font-variant-east-asian:normal;font-feature-settings:&quot;case&quot;;fill:#ffffff;stroke-width:0.25364"
         id="path1138" />
      <path
         d="m 182.92164,256.44117 q 0,2.36109 -0.51116,4.01629 -0.48683,1.63086 -1.43614,2.65319 -0.92496,1.02234 -2.26373,1.48482 -1.31442,0.46248 -2.94528,0.46248 -1.6552,0 -3.50513,-0.43814 v -16.35729 q 0.92496,-0.19473 1.80124,-0.31643 0.87629,-0.12171 1.67955,-0.12171 1.6552,0 2.96962,0.46248 1.33877,0.46249 2.26373,1.48482 0.94931,1.02233 1.43614,2.67753 0.51116,1.63086 0.51116,3.99196 z m -2.33675,0 q 0,-1.80125 -0.26776,-3.06699 -0.26775,-1.26575 -0.8276,-2.06901 -0.55985,-0.80326 -1.48481,-1.16837 -0.90063,-0.36512 -2.16637,-0.36512 -0.34077,0 -0.68155,0.0243 -0.34078,0.0243 -0.7059,0.073 v 13.14425 q 0.36512,0.0487 0.7059,0.073 0.34078,0.0243 0.65721,0.0243 1.29008,0 2.19071,-0.36511 0.90062,-0.36512 1.46047,-1.14404 0.58419,-0.80326 0.85194,-2.069 0.26776,-1.26574 0.26776,-3.09133 z"
         style="font-style:normal;font-variant:normal;font-weight:normal;font-stretch:normal;font-size:24.3412px;font-family:'Ubuntu Condensed';-inkscape-font-specification:'Ubuntu Condensed, Normal';font-variant-ligatures:normal;font-variant-caps:normal;font-variant-numeric:normal;font-variant-east-asian:normal;font-feature-settings:&quot;case&quot;;fill:#ffffff;stroke-width:0.25364"
         id="path1140" />
    </g>
    <circle
       transform="matrix(0.8170423,0,0,0.8170423,-132.35875,-0.73130187)"
       clip-path="url(#clipPath1117)"
       style="fill:url(#radialGradient5470);fill-opacity:1;stroke:none;stroke-width:2.69811;stroke-miterlimit:4;stroke-dasharray:none;stroke-opacity:1"
       id="path5460"
       cx="457.03625"
       cy="60.804379"
       r="38.219543" />
    <text
       transform="rotate(35.548774)"
       xml:space="preserve"
       style="font-style:normal;font-variant:normal;font-weight:normal;font-stretch:normal;font-size:7.60766px;line-height:1.25;font-family:Roboto;-inkscape-font-specification:'Roboto, Normal';font-variant-ligatures:normal;font-variant-caps:normal;font-variant-numeric:normal;font-variant-east-asian:normal;text-align:start;letter-spacing:0px;word-spacing:0px;writing-mode:lr-tb;text-anchor:start;display:inline;fill:#ffffff;fill-opacity:1;stroke:none;stroke-width:0.264583"
       x="462.54843"
       y="261.20117"
       id="text884"><tspan
         sodipodi:role="line"
         id="tspan882"
         x="462.54843"
         y="261.20117"
         style="font-style:normal;font-variant:normal;font-weight:normal;font-stretch:normal;font-size:7.60766px;font-family:Roboto;-inkscape-font-specification:'Roboto, Normal';font-variant-ligatures:normal;font-variant-caps:normal;font-variant-numeric:normal;font-variant-east-asian:normal;fill:#ffffff;stroke-width:0.264583">@q.e.quotes</tspan></text>
  </g>
</svg>
