<?xml version="1.0" encoding="UTF-8" standalone="no"?>
<!-- Created with Inkscape (http://www.inkscape.org/) -->

<svg
   xmlns:dc="http://purl.org/dc/elements/1.1/"
   xmlns:cc="http://creativecommons.org/ns#"
   xmlns:rdf="http://www.w3.org/1999/02/22-rdf-syntax-ns#"
   xmlns:svg="http://www.w3.org/2000/svg"
   xmlns="http://www.w3.org/2000/svg"
   xmlns:xlink="http://www.w3.org/1999/xlink"
   xmlns:sodipodi="http://sodipodi.sourceforge.net/DTD/sodipodi-0.dtd"
   xmlns:inkscape="http://www.inkscape.org/namespaces/inkscape"
   inkscape:export-ydpi="96"
   inkscape:export-xdpi="96"
   inkscape:export-filename="/home/btjanaka/Documents/art/landscapes/mountains.png"
   sodipodi:docname="mountain-explorer-v2.svg"
   inkscape:version="0.92.3 (2405546, 2018-03-11)"
   id="svg1010"
   version="1.1"
   viewBox="0 0 507.99999 285.75001"
   height="1080"
   width="1920">
  <sodipodi:namedview
     inkscape:snap-others="false"
     showguides="true"
     inkscape:object-nodes="true"
     inkscape:snap-midpoints="false"
     inkscape:snap-smooth-nodes="false"
     inkscape:snap-page="true"
     inkscape:snap-center="true"
     inkscape:snap-object-midpoints="true"
     units="px"
     inkscape:window-maximized="1"
     inkscape:window-y="27"
     inkscape:window-x="67"
     inkscape:window-height="1029"
     inkscape:window-width="1853"
     showgrid="false"
     inkscape:current-layer="layer1"
     inkscape:document-units="px"
     inkscape:cy="544.30933"
     inkscape:cx="905.85821"
     inkscape:zoom="0.50528672"
     inkscape:pageshadow="2"
     inkscape:pageopacity="0.0"
     borderopacity="1.0"
     bordercolor="#666666"
     pagecolor="#ffffff"
     id="base"
     inkscape:snap-nodes="false"
     inkscape:guide-bbox="true">
    <sodipodi:guide
       position="171.75067,285.75001"
       orientation="1,0"
       id="guide904"
       inkscape:locked="false" />
  </sodipodi:namedview>
  <defs
     id="defs1004">
    <linearGradient
       id="linearGradient1122"
       inkscape:collect="always">
      <stop
         id="stop1118"
         offset="0"
         style="stop-color:#40c2ff;stop-opacity:1" />
      <stop
         id="stop1120"
         offset="1"
         style="stop-color:#b9eeff;stop-opacity:1" />
    </linearGradient>
    <linearGradient
       inkscape:collect="always"
       id="linearGradient5456">
      <stop
         style="stop-color:#ff5508;stop-opacity:1"
         offset="0"
         id="stop5452" />
      <stop
         style="stop-color:#fff3b9;stop-opacity:1"
         offset="1"
         id="stop5454" />
    </linearGradient>
    <linearGradient
       inkscape:collect="always"
       xlink:href="#linearGradient1122"
       id="linearGradient5458"
       x1="254"
       y1="11.249983"
       x2="254"
       y2="296.99997"
       gradientUnits="userSpaceOnUse" />
    <clipPath
       id="clipPath1088"
       clipPathUnits="userSpaceOnUse">
      <rect
         style="fill:url(#linearGradient1092);fill-opacity:1;stroke:none;stroke-width:2;stroke-miterlimit:4;stroke-dasharray:none;stroke-opacity:1"
         id="rect1090"
         width="508"
         height="285.75"
         x="1.7763568e-14"
         y="11.249976" />
    </clipPath>
    <linearGradient
       y2="296.99997"
       x2="254"
       y1="11.249983"
       x1="254"
       gradientTransform="translate(-8.4374998e-7,-1.0639583e-5)"
       gradientUnits="userSpaceOnUse"
       id="linearGradient1092"
       xlink:href="#linearGradient5456"
       inkscape:collect="always" />
    <clipPath
       id="clipPath1094"
       clipPathUnits="userSpaceOnUse">
      <rect
         style="fill:url(#linearGradient1098);fill-opacity:1;stroke:none;stroke-width:2;stroke-miterlimit:4;stroke-dasharray:none;stroke-opacity:1"
         id="rect1096"
         width="508"
         height="285.75"
         x="1.7763568e-14"
         y="11.249976" />
    </clipPath>
    <linearGradient
       y2="296.99997"
       x2="254"
       y1="11.249983"
       x1="254"
       gradientTransform="translate(-8.4374998e-7,-1.0639583e-5)"
       gradientUnits="userSpaceOnUse"
       id="linearGradient1098"
       xlink:href="#linearGradient5456"
       inkscape:collect="always" />
    <clipPath
       id="clipPath1100"
       clipPathUnits="userSpaceOnUse">
      <rect
         style="fill:url(#linearGradient1104);fill-opacity:1;stroke:none;stroke-width:2;stroke-miterlimit:4;stroke-dasharray:none;stroke-opacity:1"
         id="rect1102"
         width="508"
         height="285.75"
         x="1.7763568e-14"
         y="11.249976" />
    </clipPath>
    <linearGradient
       y2="296.99997"
       x2="254"
       y1="11.249983"
       x1="254"
       gradientTransform="translate(-8.4374998e-7,-1.0639583e-5)"
       gradientUnits="userSpaceOnUse"
       id="linearGradient1104"
       xlink:href="#linearGradient5456"
       inkscape:collect="always" />
    <clipPath
       id="clipPath1106"
       clipPathUnits="userSpaceOnUse">
      <rect
         style="fill:url(#linearGradient1110);fill-opacity:1;stroke:none;stroke-width:2;stroke-miterlimit:4;stroke-dasharray:none;stroke-opacity:1"
         id="rect1108"
         width="508"
         height="285.75"
         x="1.7763568e-14"
         y="11.249976" />
    </clipPath>
    <linearGradient
       y2="296.99997"
       x2="254"
       y1="11.249983"
       x1="254"
       gradientTransform="translate(-8.4374998e-7,-1.0639583e-5)"
       gradientUnits="userSpaceOnUse"
       id="linearGradient1110"
       xlink:href="#linearGradient5456"
       inkscape:collect="always" />
    <clipPath
       id="clipPath1112"
       clipPathUnits="userSpaceOnUse">
      <rect
         style="fill:url(#linearGradient1116);fill-opacity:1;stroke:none;stroke-width:2;stroke-miterlimit:4;stroke-dasharray:none;stroke-opacity:1"
         id="rect1114"
         width="508"
         height="285.75"
         x="1.7763568e-14"
         y="11.249976" />
    </clipPath>
    <linearGradient
       y2="296.99997"
       x2="254"
       y1="11.249983"
       x1="254"
       gradientTransform="translate(-8.4374998e-7,-1.0639583e-5)"
       gradientUnits="userSpaceOnUse"
       id="linearGradient1116"
       xlink:href="#linearGradient5456"
       inkscape:collect="always" />
    <radialGradient
       gradientTransform="matrix(1.3490562,0,0,1.3490565,-155.91853,-17.523235)"
       gradientUnits="userSpaceOnUse"
       r="28.33057"
       fy="58.061031"
       fx="454.35822"
       cy="58.061031"
       cx="454.35822"
       id="radialGradient5470"
       xlink:href="#linearGradient5468"
       inkscape:collect="always" />
    <linearGradient
       id="linearGradient5468"
       inkscape:collect="always">
      <stop
         id="stop5464"
         offset="0"
         style="stop-color:#ffffff;stop-opacity:1;" />
      <stop
         style="stop-color:#ffffff;stop-opacity:1"
         offset="0.69047737"
         id="stop5472" />
      <stop
         id="stop5466"
         offset="1"
         style="stop-color:#ffffff;stop-opacity:0" />
    </linearGradient>
    <clipPath
       id="clipPath1112-7"
       clipPathUnits="userSpaceOnUse">
      <rect
         style="fill:url(#linearGradient1116);fill-opacity:1;stroke:none;stroke-width:2;stroke-miterlimit:4;stroke-dasharray:none;stroke-opacity:1"
         id="rect1114-5"
         width="508"
         height="285.75"
         x="1.7763568e-14"
         y="11.249976" />
    </clipPath>
    <clipPath
       clipPathUnits="userSpaceOnUse"
       id="clipPath1677">
      <rect
         clip-path="url(#clipPath1112-7)"
         style="fill:url(#linearGradient1681);fill-opacity:1;stroke:none;stroke-width:2;stroke-miterlimit:4;stroke-dasharray:none;stroke-opacity:1"
         id="rect1679"
         width="508"
         height="285.75"
         x="0"
         y="11.249983"
         transform="translate(0,9.9979167e-6)" />
    </clipPath>
    <linearGradient
       inkscape:collect="always"
       xlink:href="#linearGradient1122"
       id="linearGradient1681"
       gradientUnits="userSpaceOnUse"
       x1="254"
       y1="11.249983"
       x2="254"
       y2="296.99997" />
    <clipPath
       clipPathUnits="userSpaceOnUse"
       id="clipPath1683">
      <rect
         clip-path="url(#clipPath1112-7)"
         style="fill:url(#linearGradient1687);fill-opacity:1;stroke:none;stroke-width:2;stroke-miterlimit:4;stroke-dasharray:none;stroke-opacity:1"
         id="rect1685"
         width="508"
         height="285.75"
         x="0"
         y="11.249983"
         transform="translate(0,9.9979167e-6)" />
    </clipPath>
    <linearGradient
       inkscape:collect="always"
       xlink:href="#linearGradient1122"
       id="linearGradient1687"
       gradientUnits="userSpaceOnUse"
       x1="254"
       y1="11.249983"
       x2="254"
       y2="296.99997" />
    <clipPath
       clipPathUnits="userSpaceOnUse"
       id="clipPath1689">
      <rect
         clip-path="url(#clipPath1112-7)"
         style="fill:url(#linearGradient1693);fill-opacity:1;stroke:none;stroke-width:2;stroke-miterlimit:4;stroke-dasharray:none;stroke-opacity:1"
         id="rect1691"
         width="508"
         height="285.75"
         x="0"
         y="11.249983"
         transform="translate(0,9.9979167e-6)" />
    </clipPath>
    <linearGradient
       inkscape:collect="always"
       xlink:href="#linearGradient1122"
       id="linearGradient1693"
       gradientUnits="userSpaceOnUse"
       x1="254"
       y1="11.249983"
       x2="254"
       y2="296.99997" />
    <clipPath
       clipPathUnits="userSpaceOnUse"
       id="clipPath1695">
      <rect
         clip-path="url(#clipPath1112-7)"
         style="fill:url(#linearGradient1699);fill-opacity:1;stroke:none;stroke-width:2;stroke-miterlimit:4;stroke-dasharray:none;stroke-opacity:1"
         id="rect1697"
         width="508"
         height="285.75"
         x="0"
         y="11.249983"
         transform="translate(0,9.9979167e-6)" />
    </clipPath>
    <linearGradient
       inkscape:collect="always"
       xlink:href="#linearGradient1122"
       id="linearGradient1699"
       gradientUnits="userSpaceOnUse"
       x1="254"
       y1="11.249983"
       x2="254"
       y2="296.99997" />
    <clipPath
       clipPathUnits="userSpaceOnUse"
       id="clipPath1701">
      <rect
         clip-path="url(#clipPath1112-7)"
         style="fill:url(#linearGradient1705);fill-opacity:1;stroke:none;stroke-width:2;stroke-miterlimit:4;stroke-dasharray:none;stroke-opacity:1"
         id="rect1703"
         width="508"
         height="285.75"
         x="0"
         y="11.249983"
         transform="translate(0,9.9979167e-6)" />
    </clipPath>
    <linearGradient
       inkscape:collect="always"
       xlink:href="#linearGradient1122"
       id="linearGradient1705"
       gradientUnits="userSpaceOnUse"
       x1="254"
       y1="11.249983"
       x2="254"
       y2="296.99997" />
    <clipPath
       clipPathUnits="userSpaceOnUse"
       id="clipPath1707">
      <rect
         clip-path="url(#clipPath1112-7)"
         style="fill:url(#linearGradient1711);fill-opacity:1;stroke:none;stroke-width:2;stroke-miterlimit:4;stroke-dasharray:none;stroke-opacity:1"
         id="rect1709"
         width="508"
         height="285.75"
         x="0"
         y="11.249983"
         transform="translate(0,9.9979167e-6)" />
    </clipPath>
    <linearGradient
       inkscape:collect="always"
       xlink:href="#linearGradient1122"
       id="linearGradient1711"
       gradientUnits="userSpaceOnUse"
       x1="254"
       y1="11.249983"
       x2="254"
       y2="296.99997" />
    <clipPath
       clipPathUnits="userSpaceOnUse"
       id="clipPath886">
      <rect
         style="opacity:0.15;fill:#000000;fill-opacity:1;stroke:none;stroke-width:2;stroke-miterlimit:4;stroke-dasharray:none;stroke-opacity:1"
         id="rect888"
         width="107.73581"
         height="169.41222"
         x="24.161697"
         y="83.946693"
         transform="scale(-1,1)" />
    </clipPath>
    <clipPath
       clipPathUnits="userSpaceOnUse"
       id="clipPath923">
      <rect
         style="opacity:0.47099998;fill:#000000;fill-opacity:1;stroke:none;stroke-width:1.90995884;stroke-miterlimit:4;stroke-dasharray:none;stroke-opacity:1"
         id="rect925"
         width="227.54166"
         height="160.57686"
         x="26.458332"
         y="111.0357"
         transform="scale(-1,1)" />
    </clipPath>
    <clipPath
       id="clipPath1105"
       clipPathUnits="userSpaceOnUse">
      <rect
         y="11.249983"
         x="0"
         height="285.75"
         width="508"
         id="rect1107"
         style="opacity:1;fill:#242664;fill-opacity:1;stroke:none;stroke-width:2;stroke-miterlimit:4;stroke-dasharray:none;stroke-opacity:1" />
    </clipPath>
    <clipPath
       id="clipPath1109"
       clipPathUnits="userSpaceOnUse">
      <rect
         y="11.249983"
         x="0"
         height="285.75"
         width="508"
         id="rect1111"
         style="opacity:1;fill:#242664;fill-opacity:1;stroke:none;stroke-width:2;stroke-miterlimit:4;stroke-dasharray:none;stroke-opacity:1" />
    </clipPath>
    <clipPath
       id="clipPath1113"
       clipPathUnits="userSpaceOnUse">
      <rect
         y="11.249983"
         x="0"
         height="285.75"
         width="508"
         id="rect1115"
         style="opacity:1;fill:#242664;fill-opacity:1;stroke:none;stroke-width:2;stroke-miterlimit:4;stroke-dasharray:none;stroke-opacity:1" />
    </clipPath>
    <clipPath
       id="clipPath1117"
       clipPathUnits="userSpaceOnUse">
      <rect
         y="5.226202"
         x="-97.145508"
         height="349.73709"
         width="621.75482"
         id="rect1119"
         style="opacity:1;fill:#242664;fill-opacity:1;stroke:none;stroke-width:2.4478538;stroke-miterlimit:4;stroke-dasharray:none;stroke-opacity:1" />
    </clipPath>
    <clipPath
       id="clipPath1121"
       clipPathUnits="userSpaceOnUse">
      <rect
         y="11.249983"
         x="0"
         height="285.75"
         width="508"
         id="rect1123"
         style="opacity:1;fill:#242664;fill-opacity:1;stroke:none;stroke-width:2;stroke-miterlimit:4;stroke-dasharray:none;stroke-opacity:1" />
    </clipPath>
    <clipPath
       id="clipPath1125"
       clipPathUnits="userSpaceOnUse">
      <rect
         y="11.249983"
         x="0"
         height="285.75"
         width="508"
         id="rect1127"
         style="opacity:1;fill:#242664;fill-opacity:1;stroke:none;stroke-width:2;stroke-miterlimit:4;stroke-dasharray:none;stroke-opacity:1" />
    </clipPath>
    <clipPath
       id="clipPath1129"
       clipPathUnits="userSpaceOnUse">
      <rect
         y="11.249983"
         x="0"
         height="285.75"
         width="508"
         id="rect1131"
         style="opacity:1;fill:#242664;fill-opacity:1;stroke:none;stroke-width:2;stroke-miterlimit:4;stroke-dasharray:none;stroke-opacity:1" />
    </clipPath>
    <clipPath
       id="clipPath1133"
       clipPathUnits="userSpaceOnUse">
      <rect
         y="11.249983"
         x="0"
         height="285.75"
         width="508"
         id="rect1135"
         style="opacity:1;fill:#242664;fill-opacity:1;stroke:none;stroke-width:2;stroke-miterlimit:4;stroke-dasharray:none;stroke-opacity:1" />
    </clipPath>
    <clipPath
       id="clipPath1137"
       clipPathUnits="userSpaceOnUse">
      <rect
         y="11.249983"
         x="0"
         height="285.75"
         width="508"
         id="rect1139"
         style="opacity:1;fill:#242664;fill-opacity:1;stroke:none;stroke-width:2;stroke-miterlimit:4;stroke-dasharray:none;stroke-opacity:1" />
    </clipPath>
    <clipPath
       id="clipPath1141"
       clipPathUnits="userSpaceOnUse">
      <rect
         y="11.249983"
         x="0"
         height="285.75"
         width="508"
         id="rect1143"
         style="opacity:1;fill:#242664;fill-opacity:1;stroke:none;stroke-width:2;stroke-miterlimit:4;stroke-dasharray:none;stroke-opacity:1" />
    </clipPath>
    <clipPath
       id="clipPath1121-4"
       clipPathUnits="userSpaceOnUse">
      <rect
         y="11.249983"
         x="0"
         height="285.75"
         width="508"
         id="rect1123-2"
         style="opacity:1;fill:#242664;fill-opacity:1;stroke:none;stroke-width:2;stroke-miterlimit:4;stroke-dasharray:none;stroke-opacity:1" />
    </clipPath>
    <clipPath
       id="clipPath1109-5"
       clipPathUnits="userSpaceOnUse">
      <rect
         y="11.249983"
         x="0"
         height="285.75"
         width="508"
         id="rect1111-5"
         style="opacity:1;fill:#242664;fill-opacity:1;stroke:none;stroke-width:2;stroke-miterlimit:4;stroke-dasharray:none;stroke-opacity:1" />
    </clipPath>
    <clipPath
       id="clipPath1113-0"
       clipPathUnits="userSpaceOnUse">
      <rect
         y="11.249983"
         x="0"
         height="285.75"
         width="508"
         id="rect1115-5"
         style="opacity:1;fill:#242664;fill-opacity:1;stroke:none;stroke-width:2;stroke-miterlimit:4;stroke-dasharray:none;stroke-opacity:1" />
    </clipPath>
  </defs>
  <metadata
     id="metadata1007">
    <rdf:RDF>
      <cc:Work
         rdf:about="">
        <dc:format>image/svg+xml</dc:format>
        <dc:type
           rdf:resource="http://purl.org/dc/dcmitype/StillImage" />
        <dc:title />
      </cc:Work>
    </rdf:RDF>
  </metadata>
  <g
     inkscape:label="mountains"
     inkscape:groupmode="layer"
     id="layer1"
     transform="translate(0,-11.249983)">
    <rect
       clip-path="url(#clipPath1141)"
       style="fill:url(#linearGradient5458);fill-opacity:1;stroke:none;stroke-width:2;stroke-miterlimit:4;stroke-dasharray:none;stroke-opacity:1"
       id="rect5450"
       width="508"
       height="285.75"
       x="0"
       y="11.249983" />
    <path
       sodipodi:nodetypes="cccccccccccccccccccccccccccccccccccccccccccccccccccccccccccccccccccc"
       inkscape:connector-curvature="0"
       id="path1555"
       d="m -10.583334,115.26122 c 0,0 6.9490078,-8.25315 6.9490078,-8.25315 0,0 6.9490051,-8.593001 6.9490051,-8.593001 0,0 6.9490041,-9.398687 6.9490041,-9.398687 0,0 6.949007,-1.256471 6.949007,-1.256471 0,0 6.949008,-3.813219 6.949008,-3.813219 0,0 6.949008,-9.798496 6.949008,-9.798496 0,0 6.949007,-9.127124 6.949007,-9.127124 0,0 6.949008,2.500273 6.949008,2.500273 0,0 7.683999,-4.291359 7.683999,-4.291359 0,0 7.683998,12.346388 7.683998,12.346388 0,0 7.683999,4.499203 7.683999,4.499203 0,0 7.683999,-3.274588 7.683999,-3.274588 0,0 7.683998,11.793668 7.683998,11.793668 0,0 7.683987,4.151896 7.683987,4.151896 0,0 7.683958,-0.186354 7.683958,-0.186354 0,0 7.683991,5.330323 7.683991,5.330323 0,0 5.27857,-4.575255 5.27857,-4.575255 0,0 5.27858,-8.404857 5.27858,-8.404857 0,0 5.27857,-7.325985 5.27857,-7.325985 0,0 5.27857,-9.134267 5.27857,-9.134267 0,0 5.27857,0.387986 5.27857,0.387986 0,0 5.27857,-12.905216 5.27857,-12.905216 0,0 5.27858,0.209301 5.27858,0.209301 0,0 5.27857,-14.303565 5.27857,-14.303565 0,0 5.27857,8.430592 5.27857,8.430592 0,0 5.27858,10.587107 5.27858,10.587107 0,0 5.27857,3.924323 5.27857,3.924323 0,0 5.27857,6.806551 5.27857,6.806551 0,0 5.27858,5.201249 5.27858,5.201249 0,0 5.27857,12.187392 5.27857,12.187392 0,0 5.27858,9.761431 5.27858,9.761431 0,0 5.27857,-1.201454 5.27857,-1.201454 0,0 11.82668,3.203375 11.82668,3.203375 0,0 11.82667,-5.84519 11.82667,-5.84519 0,0 11.82668,-9.571486 11.82668,-9.571486 0,0 11.82668,-2.853015 11.82668,-2.853015 0,0 11.82667,-4.995092 11.82667,-4.995092 0,0 11.82668,-13.549305 11.82668,-13.549305 0,0 11.82667,2.267838 11.82667,2.267838 0,0 11.82668,-7.872967 11.82668,-7.872967 0,0 14.69982,1.388958 14.69982,1.388958 0,0 14.69983,17.428544 14.69983,17.428544 0,0 14.69982,3.807581 14.69982,3.807581 0,0 14.69982,4.32104 14.69982,4.32104 0,0 14.69982,10.139061 14.69982,10.139061 0,0 14.69983,15.589893 14.69983,15.589893 0,0 14.69982,-0.86087 14.69982,-0.86087 0,0 14.69982,13.52474 14.69982,13.52474 0,0 15.96935,-7.35191 15.96935,-7.35191 0,0 15.96936,-3.37199 15.96936,-3.37199 0,0 15.96935,-10.62981 15.96935,-10.62981 0,0 15.96935,-7.674433 15.96935,-7.674433 0,0 15.96936,-5.393391 15.96936,-5.393391 0,0 15.96935,0.316027 15.96935,0.316027 0,0 15.96936,-12.677482 15.96936,-12.677482 0,0 15.96935,-5.832637 15.96935,-5.832637 0,0 10.16699,268.555906 10.16699,268.555906 0,0 -566.087524,3.65452 -566.087524,3.65452 0,0 -4.810852,-224.22511 -4.810852,-224.22511 0,0 2.405426,-1.52569 2.405426,-1.52569 0,0 2.405425,2.72981 2.405425,2.72981 0,0 2.405426,-0.59559 2.405426,-0.59559 0,0 2.405426,-3.6272 2.405426,-3.6272 0,0 2.405428,-1.27442 2.405428,-1.27442 0,0 2.405427,1.55867 2.405427,1.55867 0,0 2.405427,-4.69387 2.405427,-4.69387 0,0 2.405427,-0.2434 2.405427,-0.2434"
       style="opacity:0.331;fill:#2900c5;fill-opacity:1;stroke:none;stroke-width:0.26458332px;stroke-linecap:butt;stroke-linejoin:miter;stroke-opacity:1"
       clip-path="url(#clipPath1137)" />
    <path
       clip-path="url(#clipPath1133)"
       style="opacity:0.471;fill:#2200a2;fill-opacity:1;stroke:none;stroke-width:0.26458332px;stroke-linecap:butt;stroke-linejoin:miter;stroke-opacity:1"
       d="m -18.163583,144.51651 c 0,0 7.617182,-5.37611 7.617182,-5.37611 0,0 7.6171816,0.12205 7.6171816,0.12205 0,0 7.6171815,-8.40167 7.6171815,-8.40167 0,0 7.6171809,-3.04253 7.6171809,-3.04253 0,0 7.617181,-3.87991 7.617181,-3.87991 0,0 7.617182,2.97539 7.617182,2.97539 0,0 7.617181,-3.76558 7.617181,-3.76558 0,0 7.617182,-4.13015 7.617182,-4.13015 0,0 4.810851,2.78677 4.810851,2.78677 0,0 4.810851,-1.33542 4.810851,-1.33542 0,0 4.810851,6.62252 4.810851,6.62252 0,0 4.810851,-2.14279 4.810851,-2.14279 0,0 4.810852,-0.47142 4.810852,-0.47142 0,0 4.810851,5.61089 4.810851,5.61089 0,0 4.810851,3.53649 4.810851,3.53649 0,0 4.810851,2.31456 4.810851,2.31456 0,0 10.690781,-5.15219 10.690781,-5.15219 0,0 10.690771,-2.45851 10.690771,-2.45851 0,0 10.69079,-0.59358 10.69079,-0.59358 0,0 10.69078,-6.50972 10.69078,-6.50972 0,0 10.69078,3.05165 10.69078,3.05165 0,0 10.69078,-5.18648 10.69078,-5.18648 0,0 10.69078,-0.33938 10.69078,-0.33938 0,0 10.69078,1.96633 10.69078,1.96633 0,0 9.88897,1.64904 9.88897,1.64904 0,0 9.88897,-0.84317 9.88897,-0.84317 0,0 9.88898,3.44142 9.88898,3.44142 0,0 9.88897,0.99621 9.88897,0.99621 0,0 9.88897,1.21766 9.88897,1.21766 0,0 9.88898,3.77696 9.88898,3.77696 0,0 9.88897,-2.97607 9.88897,-2.97607 0,0 9.88897,6.89829 9.88897,6.89829 0,0 5.74629,-4.78573 5.74629,-4.78573 0,0 5.7463,-3.48791 5.7463,-3.48791 0,0 5.74629,2.10566 5.74629,2.10566 0,0 5.7463,1.86681 5.7463,1.86681 0,0 5.7463,-1.63781 5.7463,-1.63781 0,0 5.74629,-1.99547 5.74629,-1.99547 0,0 5.74629,-4.76618 5.74629,-4.76618 0,0 5.7463,1.00645 5.7463,1.00645 0,0 9.95579,1.42242 9.95579,1.42242 0,0 9.95578,6.66628 9.95578,6.66628 0,0 9.95579,-0.94257 9.95579,-0.94257 0,0 9.95579,8.40139 9.95579,8.40139 0,0 9.95579,4.14105 9.95579,4.14105 0,0 9.95578,-0.23061 9.95578,-0.23061 0,0 9.95579,4.87748 9.95579,4.87748 0,0 9.95579,8.47655 9.95579,8.47655 0,0 9.88897,-3.18151 9.88897,-3.18151 0,0 9.88898,-3.35108 9.88898,-3.35108 0,0 9.88898,-2.19871 9.88898,-2.19871 0,0 9.88897,-8.45574 9.88897,-8.45574 0,0 9.88898,1.49934 9.88898,1.49934 0,0 9.88897,-3.12535 9.88897,-3.12535 0,0 9.88898,-8.21934 9.88898,-8.21934 0,0 9.88897,0.88991 9.88897,0.88991 0,0 11.42577,0.34085 11.42577,0.34085 0,0 11.42578,0.4813 11.42578,0.4813 0,0 11.42577,1.70188 11.42577,1.70188 0,0 11.42577,8.42478 11.42577,8.42478 0,0 11.42577,-2.82417 11.42577,-2.82417 0,0 11.42577,3.71654 11.42577,3.71654 0,0 11.42578,3.13898 11.42578,3.13898 0,0 11.42577,6.77209 11.42577,6.77209 0,0 9.62168,178.7571 9.62168,178.7571 0,0 -596.011016,-3.56067 -596.011016,-3.56067 0,0 26.192413,-189.44787 26.192413,-189.44787"
       id="path1036"
       inkscape:connector-curvature="0"
       sodipodi:nodetypes="cccccccccccccccccccccccccccccccccccccccccccccccccccccccccccccccccccc" />
    <path
       clip-path="url(#clipPath1129)"
       sodipodi:nodetypes="cccccccccccccccccccccccccccccccccccccccccccccccccccccccccccccccccccccccccccccccccccc"
       inkscape:connector-curvature="0"
       id="path904"
       d="m -21.314761,183.64086 7.750816,1.27824 7.7508154,2.46769 7.7508146,5.70488 7.7508166,-0.66022 7.7508184,-2.8309 7.750816,5.28704 7.750816,-3.82928 7.750816,3.76665 6.681738,0.6054 6.681738,-6.92009 6.681738,-8.08791 6.681739,-4.67159 6.681738,-3.69226 6.681738,3.08941 6.681738,-11.94633 6.681738,-2.57574 7.683997,6.01864 7.68403,3.99121 7.684,9.94499 7.684,6.3851 7.68399,0.61883 7.684,3.68734 7.684,10.66593 7.684,1.95443 7.684,-7.80353 7.684,-6.35827 7.684,-5.71573 7.684,-4.06558 7.68399,-10.01353 7.684,-5.31926 7.684,-0.14509 7.684,-6.20785 7.684,2.61343 7.68399,2.11786 7.684,3.21233 7.684,12.98214 7.684,7.28275 7.68399,1.64167 7.684,3.67156 7.684,5.45575 2.73951,1.29641 2.73952,-1.78015 2.73952,-1.85195 2.73951,-6.03906 2.73951,1.40887 2.73952,-1.69531 2.73951,-4.93488 3.00679,-3.48039 3.60814,-0.22128 1.73725,2.5963 2.80633,3.90983 2.80633,6.60778 2.80633,-0.72064 2.80633,1.06716 2.80633,4.87565 2.80633,6.0967 9.82215,-4.79579 9.82216,-6.55355 9.82215,-7.56183 9.82215,-4.86235 9.82216,2.55747 9.82215,-8.72197 9.82216,-7.89821 9.82215,-0.65573 10.42351,4.65578 10.42351,4.93595 10.42351,4.11696 10.42351,-0.53158 10.42352,7.35419 10.42351,6.36942 10.42351,5.21852 10.23452,3.25413 5.93528,-7.70903 5.7463,-6.65713 6.12427,-2.94076 5.36832,2.40895 5.74629,-8.91481 5.74629,1.05048 5.7463,-10.35066 5.74629,-1.49673 v 171.71351 l -553.782468,-2.21844 1.603617,-154.0219"
       style="opacity:1;fill:#2d2f79;fill-opacity:1;stroke:none;stroke-width:0.26458332px;stroke-linecap:butt;stroke-linejoin:miter;stroke-opacity:1" />
    <path
       clip-path="url(#clipPath1125)"
       style="fill:#21235c;fill-opacity:1;stroke:none;stroke-width:0.26458332px;stroke-linecap:butt;stroke-linejoin:miter;stroke-opacity:1"
       d="m -20.416037,239.76329 7.32547,-1.19399 7.3254695,-2.33537 7.3254698,-0.22192 7.3254698,-4.5393 7.3254699,-0.82365 7.32547,-0.79411 7.32547,-3.30212 7.32547,-2.83914 7.325469,-2.18385 7.32547,-0.14966 7.32547,-3.11816 7.32547,-1.8101 7.32547,-1.44099 7.325469,-3.0954 7.32547,-1.08318 7.32547,-3.05091 8.51434,2.29494 8.51434,2.01941 8.51434,1.34671 8.51434,2.57789 8.51435,1.71376 8.51434,-0.42922 8.51434,1.00182 8.51434,2.20193 8.51434,2.1719 8.51434,1.23533 8.51434,1.6461 8.51434,1.56192 8.51434,0.85171 8.51434,2.68701 8.51434,1.17311 8.51434,2.37579 8.54171,-1.89701 8.54172,-1.0726 8.54171,-1.49246 8.54172,1.67119 8.54172,-2.7018 8.54171,-1.84686 8.54172,-0.65561 8.54171,-0.92229 8.54172,-2.11271 8.54171,0.50806 8.54171,-1.40734 8.54172,-1.67572 8.54172,-0.55341 8.54171,-0.96075 8.54171,-0.9269 8.54172,0.37353 9.95204,0.42359 9.95204,1.4118 9.95204,3.24016 9.95204,2.41935 9.95204,0.48375 9.95204,1.3953 9.95204,3.19127 9.95204,2.94992 9.95203,1.20677 9.95204,-0.14147 9.95204,2.9258 10.21386,-1.90752 10.89085,-2.39438 13.2844,-6.31925 5.41905,19.68789 9.95204,1.35887 2.47226,92.34587 -553.782471,-2.62766 1.973174,-95.919"
       id="path930"
       inkscape:connector-curvature="0"
       sodipodi:nodetypes="cccccccccccccccccccccccccccccccccccccccccccccccccccccccccccccccccccc" />
    <circle
       r="38.219543"
       cy="60.804379"
       cx="457.03625"
       id="path5460"
       style="fill:url(#radialGradient5470);fill-opacity:1;stroke:none;stroke-width:2.6981132;stroke-miterlimit:4;stroke-dasharray:none;stroke-opacity:1"
       clip-path="url(#clipPath1117)"
       transform="matrix(0.81704231,0,0,0.81704231,79.371993,6.9799548)" />
    <path
       clip-path="url(#clipPath1105)"
       style="opacity:1;fill:#2d2f79;fill-opacity:1;stroke:none;stroke-width:0.06915704px;stroke-linecap:butt;stroke-linejoin:miter;stroke-opacity:1"
       d="m 389.69286,156.55634 c 0.33269,0.66156 0.66545,1.32309 0.99819,1.98462 l 1.78754,-0.0341 -0.0341,1.16337 -1.98462,-0.0343 v 0.92389 l 1.92033,-0.0242 -0.17317,6.93596 h 0.95807 l 0.22976,-6.9519 3.29252,-0.0967 3.29253,0.0969 0.22976,6.95177 h 0.95807 l -0.17317,-6.93596 1.92033,0.0242 V 159.636 l -1.98463,0.0343 -0.0341,-1.16337 1.78755,0.0341 c 0.33274,-0.66153 0.66549,-1.32306 0.99818,-1.98462 -1.0265,0.47904 -6.99445,0.51328 -6.99445,0.51328 0,0 -5.96794,-0.0342 -6.99446,-0.51328 z m 6.53386,1.98151 v 1.08882 h -2.80654 v -1.06464 z m 0.9212,0 2.80652,0.0242 v 1.06464 h -2.80652 z"
       id="path908"
       inkscape:connector-curvature="0"
       transform="translate(0.52916667)" />
    <path
       sodipodi:nodetypes="cccccccccccccccccccccccccccccccccccccccccccccccccccccccccccccccccccccccccccccccccccc"
       inkscape:connector-curvature="0"
       id="path839"
       d="m -12.027128,259.44999 c 0,0 6.0135638,1.51759 6.0135638,1.51759 0,0 6.0135642,-3.68843 6.0135642,-3.68843 0,0 6.0135643,0.36163 6.0135643,0.36163 0,0 6.0135647,1.17026 6.0135647,1.17026 0,0 6.013564,-0.66229 6.013564,-0.66229 0,0 6.013564,-1.09596 6.013564,-1.09596 0,0 6.013565,-0.96984 6.013565,-0.96984 0,0 6.013564,-1.14092 6.013564,-1.14092 0,0 6.013564,2.1382 6.013564,2.1382 0,0 6.013564,-3.45212 6.013564,-3.45212 0,0 6.013564,3.08227 6.013564,3.08227 0,0 6.013564,-0.78406 6.013564,-0.78406 0,0 6.013564,-2.00431 6.013564,-2.00431 0,0 6.013565,1.02166 6.013565,1.02166 0,0 6.013564,-2.40043 6.013564,-2.40043 0,0 6.013564,-0.57907 6.013564,-0.57907 0,0 6.815373,1.52294 6.815373,1.52294 0,0 6.815373,-0.21904 6.815373,-0.21904 0,0 6.815375,0.71986 6.815375,0.71986 0,0 6.81537,-0.86319 6.81537,-0.86319 0,0 6.81538,-0.72941 6.81538,-0.72941 0,0 6.81537,0.88449 6.81537,0.88449 0,0 6.81537,0.0791 6.81537,0.0791 0,0 6.81537,2.60109 6.81537,2.60109 0,0 6.81537,-2.09482 6.81537,-2.09482 0,0 6.81538,3.38036 6.81538,3.38036 0,0 6.81537,-0.88751 6.81537,-0.88751 0,0 6.81538,0.77756 6.81538,0.77756 0,0 6.81537,0.1116 6.81537,0.1116 0,0 6.81537,0.6231 6.81537,0.6231 0,0 6.81537,-2.55318 6.81537,-2.55318 0,0 6.81538,0.86574 6.81538,0.86574 0,0 6.9156,0.7905 6.9156,0.7905 0,0 6.9156,0.66878 6.9156,0.66878 0,0 6.9156,0.14955 6.9156,0.14955 0,0 6.91559,-1.77037 6.91559,-1.77037 0,0 6.9156,-1.63245 6.9156,-1.63245 0,0 6.9156,0.50983 6.9156,0.50983 0,0 6.9156,-2.07479 6.9156,-2.07479 0,0 6.9156,1.50196 6.9156,1.50196 0,0 6.9156,0.33963 6.9156,0.33963 0,0 6.9156,-0.67841 6.9156,-0.67841 0,0 6.9156,-2.55768 6.9156,-2.55768 0,0 6.91559,0.77049 6.91559,0.77049 0,0 6.9156,0.6551 6.9156,0.6551 0,0 6.9156,-2.77239 6.9156,-2.77239 0,0 6.9156,-0.34118 6.9156,-0.34118 0,0 6.9156,1.0938 6.9156,1.0938 0,0 7.51695,0.41491 7.51695,0.41491 0,0 7.51696,-0.9724 7.51696,-0.9724 0,0 7.51696,2.75114 7.51696,2.75114 0,0 7.51695,-0.23809 7.51695,-0.23809 0,0 7.51695,0.77673 7.51695,0.77673 0,0 7.51696,-2.21237 7.51696,-2.21237 0,0 7.51696,2.69463 7.51696,2.69463 0,0 7.51695,-0.20507 7.51695,-0.20507 0,0 7.51696,1.20427 7.51696,1.20427 0,0 7.51695,-1.70756 7.51695,-1.70756 0,0 7.51696,2.01764 7.51696,2.01764 0,0 7.51695,2.40214 7.51695,2.40214 0,0 7.51695,1.1923 7.51695,1.1923 0,0 7.51696,-3.33896 7.51696,-3.33896 0,0 7.51696,1.68416 7.51696,1.68416 0,0 7.51695,1.83264 7.51695,1.83264 0,0 6.51469,0.19656 6.51469,0.19656 0,0 6.5147,-3.60096 6.5147,-3.60096 0,0 6.5147,1.26747 6.5147,1.26747 0,0 6.51469,0.0339 6.51469,0.0339 0,0 6.5147,0.1032 6.5147,0.1032 0,0 6.51469,-2.97184 6.51469,-2.97184 0,0 6.51469,-1.53602 6.51469,-1.53602 0,0 6.5147,2.41857 6.5147,2.41857 0,0 6.51469,-3.39046 6.51469,-3.39046 0,0 6.51469,-1.19505 6.51469,-1.19505 0,0 6.5147,2.95133 6.5147,2.95133 0,0 6.51469,-3.77182 6.51469,-3.77182 0,0 6.5147,2.17301 6.5147,2.17301 0,0 6.51469,-1.52083 6.51469,-1.52083 0,0 6.51469,-0.96194 6.51469,-0.96194 0,0 6.5147,-3.10134 6.5147,-3.10134 0,0 -4.2763,62.56981 -4.2763,62.56981 0,0 -535.07359,-0.47366 -535.07359,-0.47366 0,0 -1.069078,-50.54994 -1.069078,-50.54994"
       style="fill:#000000;fill-opacity:1;stroke:none;stroke-width:0.26458332px;stroke-linecap:butt;stroke-linejoin:miter;stroke-opacity:1"
       clip-path="url(#clipPath1121-4)" />
    <path
       clip-path="url(#clipPath1113-0)"
       style="fill:#000000;fill-opacity:1;stroke:#000000;stroke-width:0.26458332px;stroke-linecap:butt;stroke-linejoin:miter;stroke-opacity:1"
       d="m 130.34853,116.9889 -2.28564,0.2589 -1.50947,0.38809 -1.33739,0.68988 -0.99167,0.4315 -0.90589,1.16427 -0.25838,1.50947 -0.0863,1.29397 -0.0434,1.72496 v 1.72496 l 0.4315,2.28617 0.44881,2.24903 0.90589,2.25625 1.55385,1.55236 1.50669,1.39229 c -0.15486,0.87665 -0.35483,1.48994 -0.56559,2.51132 l -3.14466,-3.61749 -3.85344,-2.57408 -4.50627,-0.50133 -3.63647,-0.27182 -4.16822,1.39733 -4.45244,1.85415 v 3.96875 l -0.94464,2.7404 v 4.63021 l -1.89033,4.44107 -0.657315,3.97392 -0.0982,5.85339 0.472325,5.85856 v 3.11867 l -0.18914,3.77961 v 5.19711 l -0.756025,4.53563 0.30645,4.01991 1.809185,2.897 2.78846,1.07588 2.65565,0.0388 6.57208,0.27168 -0.17363,5.01598 -0.36226,4.53564 0.18862,3.40186 0.37827,5.57537 -0.18913,6.61458 -0.28371,2.83498 0.0951,3.11816 0.4718,4.06332 -0.0941,5.66942 0.47232,5.95312 1.03922,5.1971 0.48434,5.20111 0.85059,3.68556 0.75551,3.40134 0.18914,4.81935 1.03973,3.30729 2.55126,1.13378 2.7404,-0.75551 3.21273,-2.45721 1.6061,-0.94465 1.88981,-5.85856 -0.47232,-1.51205 -2.83498,0.0946 -1.1808,-0.56637 -0.65769,-1.87649 -0.15971,-2.37597 -0.29762,-4.70981 -5.3e-4,-6.52001 -0.28319,-4.44108 0.70849,-6.70966 0.24308,-3.09038 0.66459,-3.43786 0.54572,-3.98201 2.11886,-4.43508 0.18914,-1.22834 1.13378,3.49642 -0.0946,4.81935 0.66146,2.17299 0.56689,2.45722 -0.0946,3.11815 0.47283,3.30729 -0.28369,4.44107 -0.37776,7.18147 0.56688,6.61458 -0.85059,10.39472 -0.75602,0.75602 -0.0946,7.9375 1.41748,1.22835 1.70119,0.75603 2.26756,-0.0946 3.02411,-1.51205 4.3465,-1.79524 4.91391,-1.03973 2.26756,-1.32292 2.74041,-2.07894 0.75602,-2.26756 -0.75602,-1.79524 -1.51205,-1.22887 -3.77961,0.37827 -2.83498,0.18914 -2.36213,0.47232 -1.41748,-1.13378 -0.75603,-2.36264 0.47232,-3.59048 1.22887,-5.10305 0.82062,-5.35988 0.57619,-8.71936 0.26097,-6.17172 0.70435,-6.20686 1.60662,-6.80423 -0.0951,-5.00745 0.75604,-5.85908 -0.75551,-5.76399 -0.0946,-4.44159 v -3.30729 l -0.385,-4.61057 -0.1819,-4.12947 -0.1204,-3.23598 0.25093,-2.32483 2.03037,1.59971 1.99389,4.0474 5.21992,4.93629 6.68936,5.04051 2.06257,3.67885 3.03061,2.4084 2.63931,0.3573 1.53909,-0.9343 1.37826,-1.44954 -0.8714,-2.70994 -1.92428,-1.05106 -1.09931,-1.26769 -1.27238,-1.55067 -1.70305,-2.86733 -3.40164,-2.74032 -2.57457,-3.45035 -2.76326,-4.15804 -1.70329,-3.44779 -1.55785,-4.44107 -0.85059,-4.15789 -2.07894,-3.96875 -3.11816,-9.44903 -1.51205,-2.17351 -2.4567,-1.32292 -6.00024,-2.31955 -0.40072,-2.70648 0.34634,-0.10894 1.33738,-0.12919 h 1.20717 l 0.77669,-0.0429 0.51728,-0.38809 0.1726,-0.73329 -0.21549,-0.73329 0.0429,-0.38809 0.2155,-0.90589 v -0.30179 l -0.3881,-0.51728 0.12971,-0.47439 0.43098,-0.6041 -0.30179,-0.47438 v -0.3447 l 0.77618,-0.1297 0.1726,-0.51729 0.0863,-0.56068 -0.47439,-0.56069 0.47439,-0.99219 -0.0486,-0.83509 -0.1416,-0.57516 -0.45682,-0.0992 -0.37258,-0.0662 0.0274,-0.58084 -0.17209,-0.51728 -0.17259,-0.64699 -0.3881,-0.94878 -0.12969,-0.81958 0.51779,-0.0858 0.38808,-0.4315 0.0429,-0.99218 -0.3881,-0.99168 -1.03507,-1.07797 -1.55237,-1.42368 -2.19986,-0.90537 -1.76785,-0.73329 -1.85467,-0.56069 z"
       id="path890-3"
       inkscape:connector-curvature="0"
       sodipodi:nodetypes="cccccccccccccccccccccccccccccccccccccccccccccccccccccccccccccccccccccccccccccccccccccccccccccccccccccccccccccccccccccccccccccccccccccccccccccccccccccccccccccccccccccccccccccccccccccc"
       transform="translate(-8.2309472)" />
    <g
       id="g917"
       transform="translate(217.25864,-1.3221453)">
      <path
         clip-path="url(#clipPath1109-5)"
         style="fill:#000000;fill-opacity:1;stroke:none;stroke-width:0.26889989px;stroke-linecap:butt;stroke-linejoin:miter;stroke-opacity:1"
         d="m 155.88219,168.49912 -0.8596,1.10089 1.77262,1.96915 -1.11267,0.32996 -1.61499,0.70298 -1.53409,-0.44906 -0.71682,-0.45869 -2.30777,-0.0952 -2.70054,-1.28018 -2.34293,-1.52713 -1.26806,-0.3618 -1.2233,0.93442 -0.18732,1.68895 1.09887,0.82636 1.41758,0.16814 3.23316,1.4542 1.31708,1.59045 1.82993,1.08283 1.33563,0.36659 2.07581,0.48682 0.91639,2.44772 0.8722,2.10397 1.12502,3.34699 1.69486,2.02572 -3.30335,1.46872 -1.56342,-0.99553 -1.98744,1.15318 -0.73427,1.71822 0.50872,0.51243 -0.27503,1.00145 0.67793,1.0009 -0.004,1.02111 0.20552,2.87345 c 0,0 -11.79287,6.68163 -24.96984,13.28077 -13.17284,6.59707 -19.10005,7.29592 -19.10005,7.29592 l 0.0313,-3.33373 2.06086,-0.26292 -0.68325,-0.93334 -2.04172,-0.008 -0.35079,-3.70084 -0.44062,-0.50763 -0.28151,-0.83703 1.59632,-0.4316 1.99811,-0.33528 1.39674,-1.46712 1.37283,-2.08164 1.70278,-0.0158 2.46261,-0.16614 2.02679,-0.74183 -0.0931,-1.5724 -1.6512,-1.68252 -2.26947,-0.63689 -3.01872,0.33161 -3.58962,0.69928 -5.40892,0.43436 -6.473755,-0.86556 -3.25654,-0.16217 -1.32438,1.40377 -0.5065,2.34717 1.78577,0.73907 1.49102,1.05834 1.56926,1.88099 2.37702,2.00605 1.795945,1.55636 2.86494,0.88325 0.26234,1.10788 -0.1245,1.76133 -1.77985,1.09938 0.0783,0.82266 1.75711,1.14508 1.1611,-0.0543 -0.19793,0.87107 -0.053,1.98432 c -4.702513,2.06074 -10.845371,3.40564 -15.395918,4.85683 0,0 -12.206725,-9.76026 -27.898318,-4.41576 -2.81639,0.69381 -25.319441,9.01827 -25.036788,35.53351 0,0 1.95544,31.01873 37.065375,25.43106 0,0 18.215506,-3.69052 24.972666,-23.68853 l 7.773183,-1.25569 5.20615,-0.091 1.17,0.73533 4.1881,0.68138 5.21452,1.1388 5.11195,1.22735 -0.86691,2.7308 3.27269,2.73483 3.72233,0.45522 4.3923,-0.84473 1.2311,-2.0499 c 0,0 9.20976,15.41121 31.25386,10.23482 24.29953,-8.21341 27.04652,-26.60587 26.78005,-34.00215 0.49362,-5.43733 -5.62192,-33.74426 -37.22373,-27.26302 l -1.05233,-5.51239 c 0,0 -1.40023,-8.31743 -0.97211,-9.40731 l -0.1731,-2.99702 -0.84989,-1.60008 4.18597,-2.01498 4.35951,0.98202 1.44273,-1.34227 1.3355,1.5386 1.50071,3.28298 1.47871,0.87477 1.58655,-0.65814 0.37908,-1.70594 -0.88363,-0.98119 -0.69282,-1.27467 -0.98102,-1.53302 0.0819,-0.67497 0.91895,-0.47948 1.62378,0.62547 1.14782,1.5785 1.34336,1.21851 2.05721,1.23472 1.12462,-0.0227 0.37669,-1.47129 -0.4645,-0.16919 -1.59748,-0.52094 -2.13544,-2.53387 0.74439,-0.90037 -1.03127,-0.82157 -1.53467,-1.40207 -0.78968,-1.34944 -1.71717,0.2193 -0.41074,0.99186 -0.94822,-0.067 -0.14424,1.07913 -0.60022,-0.17877 -0.35448,-1.72671 -2.08279,-3.27885 -0.50761,0.44063 -2.20509,1.34207 -2.27795,1.40484 -1.06532,-1.301 -1.20161,-2.26306 -1.13399,-2.25883 -1.62305,-3.04207 1.4032,0.3719 1.21539,1.10678 1.76131,0.12447 0.0223,-2.24503 -1.10839,-0.69117 -0.24913,-3.21718 -1.67095,-1.47284 z m -4.0088,33.22107 0.22184,1.57291 c -0.79369,-0.32839 -8.0246,6.72567 -8.0246,6.72567 0,0 -30.35757,37.33307 -29.50822,35.09274 -1.50746,-2.67043 -3.21217,-3.11062 -3.21217,-3.11062 l -2.29471,-18.95898 c 0,0 5.57497,-3.25074 26.39429,-12.40719 7.57667,-4.64702 16.42357,-8.91453 16.42357,-8.91453 z m 2.08786,7.11849 c 0,0 1.08909,4.58577 0.93381,4.47417 0,0 -17.10758,7.17007 -21.02142,24.28489 -2.92213,10.00288 0.27062,17.03472 1.82402,20.73868 l -3.38269,-0.67572 -2.3535,0.60396 0.013,-1.53962 -5.98778,-1.09709 -1.1093,-0.65598 -7.32892,-1.19188 -0.69991,-1.64805 32.0763,-37.72528 c 1.94001,-2.4805 4.40308,-3.96385 7.03639,-5.56808 z m -48.89714,14.83674 2.10044,17.7627 c -3.33085,0.44585 -4.80559,3.69358 -4.80559,3.69358 l -2.843974,-1.03135 c -0.551282,-6.5619 -3.010974,-10.55741 -3.010974,-10.55741 2.817,-3.95672 8.560098,-9.86752 8.560098,-9.86752 z m -3.28408,0.15278 -3.534581,3.62525 -1.67158,-2.23626 z m -7.476811,2.19151 2.10249,2.94064 -1.730803,1.76908 -3.583174,-4.15984 z m 7.227161,21.26381 c -0.26178,1.22013 -0.1812,2.24857 0.0493,3.38074 l -1.955809,-0.26141 c 0,0 0.352408,-3.03907 0.04325,-3.66995 z m -2.226508,5.53513 3.058248,-0.0268 c 0.3525,0.75036 0.92549,1.34829 1.14731,1.54431 l -4.595333,0.29473 z"
         id="path907"
         inkscape:connector-curvature="0"
         sodipodi:nodetypes="cccccccccccccccccccccccccccccccccscccccccccccccccccccccccccccccccccccccccccscccccccccccccccccccccccccccccccccccccccccccccccccccccccccccccccccccccccccccccccccccccccccccccccccccccccccccccccccc"
         transform="translate(-227.25546,1.3517578e-5)" />
      <path
         inkscape:connector-curvature="0"
         id="path905"
         d="m -123.62355,213.7508 -60.69423,5.4901 0.23352,2.31821 1.46803,0.0889 0.51965,0.73484 0.11676,1.57096 59.26589,-6.31899 0.70794,-0.86248 z"
         style="fill:#000000;fill-opacity:1;stroke:none;stroke-width:0.2314882px;stroke-linecap:butt;stroke-linejoin:miter;stroke-opacity:1" />
    </g>
  </g>
</svg>
