<?xml version="1.0" encoding="UTF-8" standalone="no"?>
<!-- Created with Inkscape (http://www.inkscape.org/) -->

<svg
   xmlns:dc="http://purl.org/dc/elements/1.1/"
   xmlns:cc="http://creativecommons.org/ns#"
   xmlns:rdf="http://www.w3.org/1999/02/22-rdf-syntax-ns#"
   xmlns:svg="http://www.w3.org/2000/svg"
   xmlns="http://www.w3.org/2000/svg"
   xmlns:xlink="http://www.w3.org/1999/xlink"
   xmlns:sodipodi="http://sodipodi.sourceforge.net/DTD/sodipodi-0.dtd"
   xmlns:inkscape="http://www.inkscape.org/namespaces/inkscape"
   width="1920"
   height="1080"
   viewBox="0 0 507.99999 285.75001"
   version="1.1"
   id="svg1010"
   inkscape:version="0.92.3 (2405546, 2018-03-11)"
   sodipodi:docname="mountains.svg"
   inkscape:export-xdpi="96"
   inkscape:export-ydpi="96">
  <sodipodi:namedview
     id="base"
     pagecolor="#ffffff"
     bordercolor="#666666"
     borderopacity="1.0"
     inkscape:pageopacity="0.0"
     inkscape:pageshadow="2"
     inkscape:zoom="0.49497475"
     inkscape:cx="1104.8659"
     inkscape:cy="531.60989"
     inkscape:document-units="mm"
     inkscape:current-layer="layer1"
     showgrid="false"
     inkscape:window-width="1853"
     inkscape:window-height="1029"
     inkscape:window-x="67"
     inkscape:window-y="27"
     inkscape:window-maximized="1"
     units="px"
     inkscape:snap-object-midpoints="true"
     inkscape:snap-center="true"
     inkscape:snap-page="true"
     inkscape:snap-smooth-nodes="true"
     inkscape:snap-midpoints="true" />
  <defs
     id="defs1004">
    <linearGradient
       inkscape:collect="always"
       id="linearGradient1122">
      <stop
         style="stop-color:#ff404d;stop-opacity:1"
         offset="0"
         id="stop1118" />
      <stop
         style="stop-color:#fff3b9;stop-opacity:1"
         offset="1"
         id="stop1120" />
    </linearGradient>
    <linearGradient
       id="linearGradient5456"
       inkscape:collect="always">
      <stop
         id="stop5452"
         offset="0"
         style="stop-color:#ff5508;stop-opacity:1" />
      <stop
         id="stop5454"
         offset="1"
         style="stop-color:#fff3b9;stop-opacity:1" />
    </linearGradient>
    <linearGradient
       gradientUnits="userSpaceOnUse"
       y2="296.99997"
       x2="254"
       y1="11.249983"
       x1="254"
       id="linearGradient5458"
       xlink:href="#linearGradient1122"
       inkscape:collect="always" />
    <clipPath
       clipPathUnits="userSpaceOnUse"
       id="clipPath1088">
      <rect
         y="11.249976"
         x="1.7763568e-14"
         height="285.75"
         width="508"
         id="rect1090"
         style="fill:url(#linearGradient1092);fill-opacity:1;stroke:none;stroke-width:2;stroke-miterlimit:4;stroke-dasharray:none;stroke-opacity:1" />
    </clipPath>
    <linearGradient
       inkscape:collect="always"
       xlink:href="#linearGradient5456"
       id="linearGradient1092"
       gradientUnits="userSpaceOnUse"
       gradientTransform="translate(-8.4374998e-7,-1.0639583e-5)"
       x1="254"
       y1="11.249983"
       x2="254"
       y2="296.99997" />
    <clipPath
       clipPathUnits="userSpaceOnUse"
       id="clipPath1094">
      <rect
         y="11.249976"
         x="1.7763568e-14"
         height="285.75"
         width="508"
         id="rect1096"
         style="fill:url(#linearGradient1098);fill-opacity:1;stroke:none;stroke-width:2;stroke-miterlimit:4;stroke-dasharray:none;stroke-opacity:1" />
    </clipPath>
    <linearGradient
       inkscape:collect="always"
       xlink:href="#linearGradient5456"
       id="linearGradient1098"
       gradientUnits="userSpaceOnUse"
       gradientTransform="translate(-8.4374998e-7,-1.0639583e-5)"
       x1="254"
       y1="11.249983"
       x2="254"
       y2="296.99997" />
    <clipPath
       clipPathUnits="userSpaceOnUse"
       id="clipPath1100">
      <rect
         y="11.249976"
         x="1.7763568e-14"
         height="285.75"
         width="508"
         id="rect1102"
         style="fill:url(#linearGradient1104);fill-opacity:1;stroke:none;stroke-width:2;stroke-miterlimit:4;stroke-dasharray:none;stroke-opacity:1" />
    </clipPath>
    <linearGradient
       inkscape:collect="always"
       xlink:href="#linearGradient5456"
       id="linearGradient1104"
       gradientUnits="userSpaceOnUse"
       gradientTransform="translate(-8.4374998e-7,-1.0639583e-5)"
       x1="254"
       y1="11.249983"
       x2="254"
       y2="296.99997" />
    <clipPath
       clipPathUnits="userSpaceOnUse"
       id="clipPath1106">
      <rect
         y="11.249976"
         x="1.7763568e-14"
         height="285.75"
         width="508"
         id="rect1108"
         style="fill:url(#linearGradient1110);fill-opacity:1;stroke:none;stroke-width:2;stroke-miterlimit:4;stroke-dasharray:none;stroke-opacity:1" />
    </clipPath>
    <linearGradient
       inkscape:collect="always"
       xlink:href="#linearGradient5456"
       id="linearGradient1110"
       gradientUnits="userSpaceOnUse"
       gradientTransform="translate(-8.4374998e-7,-1.0639583e-5)"
       x1="254"
       y1="11.249983"
       x2="254"
       y2="296.99997" />
    <clipPath
       clipPathUnits="userSpaceOnUse"
       id="clipPath1112">
      <rect
         y="11.249976"
         x="1.7763568e-14"
         height="285.75"
         width="508"
         id="rect1114"
         style="fill:url(#linearGradient1116);fill-opacity:1;stroke:none;stroke-width:2;stroke-miterlimit:4;stroke-dasharray:none;stroke-opacity:1" />
    </clipPath>
    <linearGradient
       inkscape:collect="always"
       xlink:href="#linearGradient5456"
       id="linearGradient1116"
       gradientUnits="userSpaceOnUse"
       gradientTransform="translate(-8.4374998e-7,-1.0639583e-5)"
       x1="254"
       y1="11.249983"
       x2="254"
       y2="296.99997" />
  </defs>
  <metadata
     id="metadata1007">
    <rdf:RDF>
      <cc:Work
         rdf:about="">
        <dc:format>image/svg+xml</dc:format>
        <dc:type
           rdf:resource="http://purl.org/dc/dcmitype/StillImage" />
        <dc:title />
      </cc:Work>
    </rdf:RDF>
  </metadata>
  <g
     transform="translate(0,-11.249983)"
     id="layer1"
     inkscape:groupmode="layer"
     inkscape:label="Layer 1">
    <rect
       y="11.249983"
       x="0"
       height="285.75"
       width="508"
       id="rect5450"
       style="fill:url(#linearGradient5458);fill-opacity:1;stroke:none;stroke-width:2;stroke-miterlimit:4;stroke-dasharray:none;stroke-opacity:1"
       clip-path="url(#clipPath1112)" />
    <path
       sodipodi:nodetypes="ccccccccccccccccccccccccccccccccccccccccccccccccccccccccccccccccccccccccccccccccccccccccccccccccccccccccccccccccccc"
       inkscape:connector-curvature="0"
       id="path824"
       d="m -12.294398,76.788552 5.6126603,-5.271726 5.6126599,-4.598418 5.61266,-1.330961 5.6126598,-3.462861 5.61266,-0.481847 5.61266,-10.260794 5.61266,1.317287 5.61266,-7.95353 8.018086,14.910594 8.018085,1.165275 8.018086,3.352296 8.018086,14.307574 8.018085,5.559502 8.018086,5.796777 8.018085,4.327086 8.018086,10.149134 5.612663,-5.006354 5.61266,-8.435672 5.61266,3.439869 5.61266,-9.867503 5.61266,-4.525761 5.61266,-1.353099 5.61266,-6.214578 5.61266,4.456028 3.00678,2.158844 3.00678,-4.157559 3.00678,5.16013 3.00678,5.370369 3.00679,-2.273625 3.00678,2.615845 3.00678,8.686509 3.00678,5.20319 5.27857,-7.393128 5.27858,-4.141736 5.27857,-0.0853 5.27858,-7.092717 5.27857,-7.712115 5.27857,3.817291 5.27858,-9.690305 5.27857,-2.623432 4.00904,10.298919 4.00904,0.190894 4.00905,-1.222349 4.00904,6.256154 4.00904,3.103487 4.00905,6.106297 4.00904,3.880236 4.00904,-0.195077 5.94675,-0.891147 5.94674,-1.851668 5.94675,-8.752682 5.94674,4.452336 5.94675,-8.250366 5.94675,-4.228853 5.94674,-2.225789 5.94675,-0.863304 3.87541,5.880074 3.8754,2.904018 3.87541,5.730776 3.87541,10.888977 3.87541,1.416764 3.87541,11.432282 3.8754,3.95883 9.28762,-5.77794 v 0 l 5.41221,-10.404739 5.41221,-0.784824 5.41221,-13.208305 5.41221,-11.200115 5.41221,-5.823561 5.41221,-6.284263 5.41221,-11.957408 5.14493,15.691676 5.14494,9.355544 5.14494,8.691213 5.14493,7.548618 5.14494,9.308009 5.14494,16.451175 5.14493,5.92132 c 5.38815,12.17643 0,0 9.42125,-0.55832 l 4.27632,-7.27985 4.27631,-2.77955 4.27632,-10.445464 4.27631,-8.227002 4.27631,-5.62282 4.27632,-8.159331 4.27631,-14.644521 3.4745,13.370597 3.47451,0.02785 3.4745,7.655407 3.4745,4.805913 3.4745,2.297435 3.47451,12.252166 3.4745,7.99687 3.4745,2.47997 3.27405,-9.92757 3.27406,3.86831 3.27405,-7.409767 3.27405,-6.593004 3.27406,-1.075444 3.27405,-3.601799 3.27406,-3.918879 3.27405,-6.944512 4.00904,3.8625 4.00904,10.51922 4.00905,-4.378773 4.00904,9.900713 4.00904,4.026345 4.00905,-2.245684 4.00904,7.251594 4.00904,4.29541 v 206.57282 l -535.073589,0.0498 -0.534539,-240.826418"
       style="opacity:0.25;fill:#000000;fill-opacity:1;stroke:none;stroke-width:0.26458332px;stroke-linecap:butt;stroke-linejoin:miter;stroke-opacity:1"
       clip-path="url(#clipPath1106)" />
    <path
       sodipodi:nodetypes="cccccccccccccccccccccccccccccccccccccccccccccccccccccccccccccccccccc"
       inkscape:connector-curvature="0"
       id="path1036"
       d="m -18.163583,144.51651 c 0,0 7.617182,-5.37611 7.617182,-5.37611 0,0 7.6171816,0.12205 7.6171816,0.12205 0,0 7.6171815,-8.40167 7.6171815,-8.40167 0,0 7.6171809,-3.04253 7.6171809,-3.04253 0,0 7.617181,-3.87991 7.617181,-3.87991 0,0 7.617182,2.97539 7.617182,2.97539 0,0 7.617181,-3.76558 7.617181,-3.76558 0,0 7.617182,-4.13015 7.617182,-4.13015 0,0 4.810851,2.78677 4.810851,2.78677 0,0 4.810851,-1.33542 4.810851,-1.33542 0,0 4.810851,6.62252 4.810851,6.62252 0,0 4.810851,-2.14279 4.810851,-2.14279 0,0 4.810852,-0.47142 4.810852,-0.47142 0,0 4.810851,5.61089 4.810851,5.61089 0,0 4.810851,3.53649 4.810851,3.53649 0,0 4.810851,2.31456 4.810851,2.31456 0,0 10.690781,-5.15219 10.690781,-5.15219 0,0 10.690771,-2.45851 10.690771,-2.45851 0,0 10.69079,-0.59358 10.69079,-0.59358 0,0 10.69078,-6.50972 10.69078,-6.50972 0,0 10.69078,3.05165 10.69078,3.05165 0,0 10.69078,-5.18648 10.69078,-5.18648 0,0 10.69078,-0.33938 10.69078,-0.33938 0,0 10.69078,1.96633 10.69078,1.96633 0,0 9.88897,1.64904 9.88897,1.64904 0,0 9.88897,-0.84317 9.88897,-0.84317 0,0 9.88898,3.44142 9.88898,3.44142 0,0 9.88897,0.99621 9.88897,0.99621 0,0 9.88897,1.21766 9.88897,1.21766 0,0 9.88898,3.77696 9.88898,3.77696 0,0 9.88897,-2.97607 9.88897,-2.97607 0,0 9.88897,6.89829 9.88897,6.89829 0,0 5.74629,-4.78573 5.74629,-4.78573 0,0 5.7463,-3.48791 5.7463,-3.48791 0,0 5.74629,2.10566 5.74629,2.10566 0,0 5.7463,1.86681 5.7463,1.86681 0,0 5.7463,-1.63781 5.7463,-1.63781 0,0 5.74629,-1.99547 5.74629,-1.99547 0,0 5.74629,-4.76618 5.74629,-4.76618 0,0 5.7463,1.00645 5.7463,1.00645 0,0 9.95579,1.42242 9.95579,1.42242 0,0 9.95578,6.66628 9.95578,6.66628 0,0 9.95579,-0.94257 9.95579,-0.94257 0,0 9.95579,8.40139 9.95579,8.40139 0,0 9.95579,4.14105 9.95579,4.14105 0,0 9.95578,-0.23061 9.95578,-0.23061 0,0 9.95579,4.87748 9.95579,4.87748 0,0 9.95579,8.47655 9.95579,8.47655 0,0 9.88897,-3.18151 9.88897,-3.18151 0,0 9.88898,-3.35108 9.88898,-3.35108 0,0 9.88898,-2.19871 9.88898,-2.19871 0,0 9.88897,-8.45574 9.88897,-8.45574 0,0 9.88898,1.49934 9.88898,1.49934 0,0 9.88897,-3.12535 9.88897,-3.12535 0,0 9.88898,-8.21934 9.88898,-8.21934 0,0 9.88897,0.88991 9.88897,0.88991 0,0 11.42577,0.34085 11.42577,0.34085 0,0 11.42578,0.4813 11.42578,0.4813 0,0 11.42577,1.70188 11.42577,1.70188 0,0 11.42577,8.42478 11.42577,8.42478 0,0 11.42577,-2.82417 11.42577,-2.82417 0,0 11.42577,3.71654 11.42577,3.71654 0,0 11.42578,3.13898 11.42578,3.13898 0,0 11.42577,6.77209 11.42577,6.77209 0,0 9.62168,178.7571 9.62168,178.7571 0,0 -596.011016,-3.56067 -596.011016,-3.56067 0,0 26.192413,-189.44787 26.192413,-189.44787"
       style="opacity:0.35;fill:#000000;fill-opacity:1;stroke:none;stroke-width:0.26458332px;stroke-linecap:butt;stroke-linejoin:miter;stroke-opacity:1"
       clip-path="url(#clipPath1100)" />
    <path
       style="opacity:0.5;fill:#000000;fill-opacity:1;stroke:none;stroke-width:0.26458332px;stroke-linecap:butt;stroke-linejoin:miter;stroke-opacity:1"
       d="m -21.314761,183.64086 c 0,0 7.750816,1.27824 7.750816,1.27824 0,0 7.7508154,2.46769 7.7508154,2.46769 0,0 7.7508146,5.70488 7.7508146,5.70488 0,0 7.7508166,-0.66022 7.7508166,-0.66022 0,0 7.7508184,-2.8309 7.7508184,-2.8309 0,0 7.750816,5.28704 7.750816,5.28704 0,0 7.750816,-3.82928 7.750816,-3.82928 0,0 7.750816,3.76665 7.750816,3.76665 0,0 6.681738,0.6054 6.681738,0.6054 0,0 6.681738,-6.92009 6.681738,-6.92009 0,0 6.681738,-8.08791 6.681738,-8.08791 0,0 6.681739,-4.67159 6.681739,-4.67159 0,0 6.681738,-3.69226 6.681738,-3.69226 0,0 6.681738,3.08941 6.681738,3.08941 0,0 6.681738,-11.94633 6.681738,-11.94633 0,0 6.681738,-2.57574 6.681738,-2.57574 0,0 7.683997,6.01864 7.683997,6.01864 0,0 7.68403,3.99121 7.68403,3.99121 0,0 7.684,9.94499 7.684,9.94499 0,0 7.684,6.3851 7.684,6.3851 0,0 7.68399,0.61883 7.68399,0.61883 0,0 7.684,3.68734 7.684,3.68734 0,0 7.684,10.66593 7.684,10.66593 0,0 7.684,1.95443 7.684,1.95443 0,0 7.684,-7.80353 7.684,-7.80353 0,0 7.684,-6.35827 7.684,-6.35827 0,0 7.684,-5.71573 7.684,-5.71573 0,0 7.684,-4.06558 7.684,-4.06558 0,0 7.68399,-10.01353 7.68399,-10.01353 0,0 7.684,-5.31926 7.684,-5.31926 0,0 7.684,-0.14509 7.684,-0.14509 0,0 7.684,-15.82955 7.684,-15.82955 0,0 7.684,12.23513 7.684,12.23513 0,0 7.68399,2.11786 7.68399,2.11786 0,0 7.684,3.21233 7.684,3.21233 0,0 7.684,12.98214 7.684,12.98214 0,0 7.684,7.28275 7.684,7.28275 0,0 7.68399,1.64167 7.68399,1.64167 0,0 7.684,3.67156 7.684,3.67156 0,0 7.684,5.45575 7.684,5.45575 0,0 2.73951,1.29641 2.73951,1.29641 0,0 2.73952,-1.78015 2.73952,-1.78015 0,0 2.73952,-1.85195 2.73952,-1.85195 0,0 2.73951,-6.03906 2.73951,-6.03906 0,0 2.73951,1.40887 2.73951,1.40887 0,0 2.73952,-1.69531 2.73952,-1.69531 0,0 2.73951,-4.93488 2.73951,-4.93488 0,0 2.73952,-4.01493 2.73952,-4.01493 0,0 2.80633,-1.02309 2.80633,-1.02309 0,0 2.80633,3.93265 2.80633,3.93265 0,0 2.80633,3.90983 2.80633,3.90983 0,0 2.80633,6.60778 2.80633,6.60778 0,0 2.80633,-0.72064 2.80633,-0.72064 0,0 2.80633,1.06716 2.80633,1.06716 0,0 2.80633,4.87565 2.80633,4.87565 0,0 2.80633,6.0967 2.80633,6.0967 0,0 9.82215,-4.79579 9.82215,-4.79579 0,0 9.82216,-6.55355 9.82216,-6.55355 0,0 9.82215,-7.56183 9.82215,-7.56183 0,0 9.82215,-4.86235 9.82215,-4.86235 0,0 9.82216,2.55747 9.82216,2.55747 0,0 9.82215,-8.72197 9.82215,-8.72197 0,0 9.82216,-7.89821 9.82216,-7.89821 0,0 9.82215,-0.65573 9.82215,-0.65573 0,0 10.42351,4.65578 10.42351,4.65578 0,0 10.42351,4.93595 10.42351,4.93595 0,0 10.42351,4.11696 10.42351,4.11696 0,0 10.42351,-0.53158 10.42351,-0.53158 0,0 10.42352,7.35419 10.42352,7.35419 0,0 10.42351,6.36942 10.42351,6.36942 0,0 10.42351,5.21852 10.42351,5.21852 0,0 10.42351,5.89996 10.42351,5.89996 0,0 5.74629,-10.35486 5.74629,-10.35486 0,0 5.7463,-6.65713 5.7463,-6.65713 0,0 5.74629,-1.99582 5.74629,-1.99582 0,0 5.7463,1.46401 5.7463,1.46401 0,0 5.74629,-8.91481 5.74629,-8.91481 0,0 5.74629,1.05048 5.74629,1.05048 0,0 5.7463,-10.35066 5.7463,-10.35066 0,0 5.74629,-1.49673 5.74629,-1.49673 0,0 0,171.71351 0,171.71351 0,0 -553.782468,-2.21844 -553.782468,-2.21844 0,0 1.603617,-154.0219 1.603617,-154.0219"
       id="path904"
       inkscape:connector-curvature="0"
       sodipodi:nodetypes="cccccccccccccccccccccccccccccccccccccccccccccccccccccccccccccccccccccccccccccccccccc"
       clip-path="url(#clipPath1094)" />
    <path
       style="fill:#000000;fill-opacity:1;stroke:none;stroke-width:0.26458332px;stroke-linecap:butt;stroke-linejoin:miter;stroke-opacity:1"
       d="M-33.67596 264.509005103C-33.67596 264.509005103 -25.089927 256.913388315 -25.089927 256.913388315C-25.089927 256.913388315 -16.503894 258.099309634 -16.503894 258.099309634C-16.503894 258.099309634 -7.9178606 255.005875851 -7.9178606 255.005875851C-7.9178606 255.005875851 0.6681725 254.433596852 0.6681725 254.433596852C0.6681725 254.433596852 9.2542056 253.535908117 9.2542056 253.535908117C9.2542056 253.535908117 17.840239 252.007993292 17.840239 252.007993292C17.840239 252.007993292 26.426272 249.743353743 26.426272 249.743353743C26.426272 249.743353743 35.012305 247.887092079 35.012305 247.887092079C35.012305 247.887092079 43.598338 243.188803481 43.598338 243.188803481C43.598338 243.188803481 52.184371 242.450551109 52.184371 242.450551109C52.184371 242.450551109 60.770405 238.214372016 60.770405 238.214372016C60.770405 238.214372016 69.356438 235.376064248 69.356438 235.376064248C69.356438 235.376064248 77.942471 235.239725273 77.942471 235.239725273C77.942471 235.239725273 86.528504 230.408423276 86.528504 230.408423276C86.528504 230.408423276 95.114537 234.109700753 95.114537 234.109700753C95.114537 234.109700753 103.70057 231.991211721 103.70057 231.991211721C103.70057 231.991211721 110.91685 231.04438316 110.91685 231.04438316C110.91685 231.04438316 118.13313 230.506945018 118.13313 230.506945018C118.13313 230.506945018 125.3494 231.189875194 125.3494 231.189875194C125.3494 231.189875194 132.56568 237.859265907 132.56568 237.859265907C132.56568 237.859265907 139.78196 237.806022213 139.78196 237.806022213C139.78196 237.806022213 146.99823 237.072869539 146.99823 237.072869539C146.99823 237.072869539 154.21451 242.968418002 154.21451 242.968418002C154.21451 242.968418002 161.43079 244.377096704 161.43079 244.377096704C161.43079 244.377096704 168.64707 243.040990364 168.64707 243.040990364C168.64707 243.040990364 175.86334 243.216585082 175.86334 243.216585082C175.86334 243.216585082 183.07962 249.642340285 183.07962 249.642340285C183.07962 249.642340285 190.2959 246.393813247 190.2959 246.393813247C190.2959 246.393813247 197.51218 251.113591582 197.51218 251.113591582C197.51218 251.113591582 204.72846 249.664512204 204.72846 249.664512204C204.72846 249.664512204 211.94473 253.635265714 211.94473 253.635265714C211.94473 253.635265714 219.16101 256.769906811 219.16101 256.769906811C219.16101 256.769906811 228.7493 254.072591668 228.7493 254.072591668C228.7493 254.072591668 238.3376 247.380057389 238.3376 247.380057389C238.3376 247.380057389 247.92589 246.781920539 247.92589 246.781920539C247.92589 246.781920539 257.51418 242.52686744 257.51418 242.52686744C257.51418 242.52686744 267.10248 239.773731136 267.10248 239.773731136C267.10248 239.773731136 276.69077 238.645789505 276.69077 238.645789505C276.69077 238.645789505 286.27907 235.313663748 286.27907 235.313663748C286.27907 235.313663748 295.86736 232.705225821 295.86736 232.705225821C295.86736 232.705225821 305.45565 233.799929684 305.45565 233.799929684C305.45565 233.799929684 315.04394 231.246072126 315.04394 231.246072126C315.04394 231.246072126 324.63224 227.282366076 324.63224 227.282366076C324.63224 227.282366076 334.22053 222.925161286 334.22053 222.925161286C334.22053 222.925161286 343.80882 221.750603496 343.80882 221.750603496C343.80882 221.750603496 353.39711 219.426126949 353.39711 219.426126949C353.39711 219.426126949 362.98541 217.62121482 362.98541 217.62121482C362.98541 217.62121482 372.5737 215.043603021 372.5737 215.043603021C372.5737 215.043603021 383.06403 218.977792962 383.06403 218.977792962C383.06403 218.977792962 393.55436 220.507483444 393.55436 220.507483444C393.55436 220.507483444 404.04469 219.504245371 404.04469 219.504245371C404.04469 219.504245371 414.53502 225.419149799 414.53502 225.419149799C414.53502 225.419149799 425.02535 226.178926302 425.02535 226.178926302C425.02535 226.178926302 435.51567 227.209291342 435.51567 227.209291342C435.51567 227.209291342 446.006 228.108716155 446.006 228.108716155C446.006 228.108716155 456.49633 226.934818611 456.49633 226.934818611C456.49633 226.934818611 466.98666 230.088542071 466.98666 230.088542071C466.98666 230.088542071 477.47699 229.546629029 477.47699 229.546629029C477.47699 229.546629029 487.96732 236.49190006 487.96732 236.49190006C487.96732 236.49190006 498.45765 233.856568379 498.45765 233.856568379C498.45765 233.856568379 508.94798 236.548808399 508.94798 236.548808399C508.94798 236.548808399 519.43831 237.884980859 519.43831 237.884980859C519.43831 237.884980859 529.92864 242.351018602 529.92864 242.351018602C529.92864 242.351018602 540.41897 242.487500546 540.41897 242.487500546C540.41897 242.487500546 543.09168 357.472304218 543.09168 357.472304218C543.09168 357.472304218 -31.003263 349.979138117 -31.003263 349.979138117C-31.003263 349.979138117 -33.67596 264.293589341 -33.67596 264.293589341"
       id="path954"
       inkscape:connector-curvature="0"
       sodipodi:nodetypes="cccccccccccccccccccccccccccccccccccccccccccccccccccccccccccccccccccc"
       clip-path="url(#clipPath1088)" />
  </g>
</svg>
